# Blender 5.0.0
# www.blender.org
o dream_world
v 2.607892 2.554722 -2.607892
v 2.607892 0.000000 -2.607892
v 2.607892 2.554722 2.607892
v 2.607892 0.000000 2.607892
v -2.607892 2.554722 -2.607892
v -2.607892 0.000000 -2.607892
v -2.607892 2.554722 2.607892
v -2.607892 0.000000 2.607892
v 0.869297 0.000000 -2.607892
v -0.869297 0.000000 -2.607892
v -0.869297 1.796289 -2.607892
v 0.869297 1.796289 -2.607892
v 0.869297 0.000000 -6.324812
v -0.869297 -0.000000 -8.056882
v -0.869297 1.796288 -8.056882
v 0.869297 1.796288 -6.324812
v 10.967506 0.000000 -6.324812
v 10.967506 1.796288 -6.324812
v 10.967506 0.000000 -8.063406
v 10.967506 1.796288 -8.063406
v -2.607892 0.000000 -1.664515
v 2.607892 2.554722 -1.664515
v -2.607892 2.554722 -1.664515
v 2.607892 0.000000 -1.664515
v 25.967506 1.796288 -6.324812
v 25.967506 0.000000 -6.324812
v 25.967506 1.796288 -8.063406
v 25.967506 0.000000 -8.063406
v 16.524237 2.590474 7.152380
v 17.467506 0.000000 -20.994303
v 25.967506 0.000000 7.152380
v 20.312508 2.590474 -21.540590
v 25.967506 0.000000 -21.540590
v 16.524237 6.796288 7.152380
v 25.967506 6.796288 7.152380
v 25.967506 6.796288 -21.540590
v 29.044674 0.000000 -8.063406
v 29.044674 1.796288 -8.063406
v 29.044674 0.000000 -6.324812
v 29.044674 1.796288 -6.324812
v 19.467506 0.000000 -26.148233
v 17.467506 0.000000 -26.148233
v 19.467506 1.796288 -26.148233
v 17.467506 1.796288 -26.148233
v 20.312506 2.590474 7.152380
v 16.524237 0.000000 7.152380
v 20.312506 0.000000 7.152380
v 17.467506 1.796288 -21.540590
v 19.467506 1.796288 -21.540590
v 17.467506 0.000000 -21.540590
v 19.467506 0.000000 -21.540590
v 20.312506 6.796288 7.152380
v 29.044674 0.000000 -10.671294
v 29.044674 0.000000 -3.716918
v 34.044674 0.000000 -10.671294
v 34.044674 0.000000 -3.716918
v 29.044674 2.796288 -3.716918
v 34.044674 2.796288 -3.716918
v 34.044674 2.796288 -10.671294
v 29.044674 2.796288 -10.671294
v 18.678392 3.546288 14.972578
v 18.678392 5.046288 14.972578
v 17.178392 5.046288 13.472578
v 17.178392 3.546288 13.472578
v 10.967506 2.590474 -4.707549
v 10.967506 2.590474 -9.545897
v 10.967506 6.796288 -9.545897
v 25.967506 6.796288 -9.545897
v 10.967506 0.000000 -9.545897
v 25.967506 0.000000 -9.545897
v 25.967506 6.796288 -4.707549
v 10.967506 6.796288 -4.707549
v 25.967506 0.000000 -4.707549
v 10.967506 0.000000 -4.707549
v 17.178392 5.046288 7.152380
v 18.678392 5.046288 7.152380
v 18.678392 3.546288 7.152380
v 17.178392 3.546288 7.152380
v 13.261886 5.046288 13.472578
v 13.261886 3.546288 13.472578
v 13.261886 5.046288 14.972578
v 13.261886 3.546288 14.972578
v 10.467506 0.000000 -26.148233
v 26.467506 0.000000 -26.148233
v 10.467506 0.000000 -36.148232
v 26.467506 0.000000 -36.148232
v 10.467506 3.756751 -36.148232
v 10.467506 3.756751 -26.148233
v 26.467506 3.756751 -36.148232
v 26.467506 3.756751 -26.148233
v 25.967506 2.590474 -4.707549
v 25.967506 2.590474 7.152380
v 25.967506 2.590474 -21.540590
v 25.967506 2.590474 -9.545897
v 16.524239 2.590474 -21.540590
v 16.524237 0.000000 -21.540590
v 23.195681 0.000000 -4.707549
v 23.195681 0.000000 -9.545897
v 20.312506 0.000000 -21.540590
v 25.335733 0.000000 -8.063406
v 25.335733 0.000000 -6.324812
v 19.467506 0.000000 -20.994303
v 16.524237 0.000000 -18.857573
v 20.312506 0.000000 -18.857573
v 11.843123 0.000000 -6.324812
v 11.843123 0.000000 -8.063406
v 14.297873 0.000000 -9.545897
v 14.297873 0.000000 -4.707549
v 10.967506 2.590474 7.152380
v 10.967506 0.000000 7.152380
v 23.195681 0.000000 -18.857573
v 20.312508 6.796288 -21.540590
v 16.524239 6.796288 -21.540590
v 23.195683 0.000000 4.120770
v 14.297873 0.000000 4.120770
v 20.312506 0.000000 4.120770
v 16.524237 0.000000 4.120770
v 10.967506 2.590474 -21.540592
v 10.967506 0.000000 -21.540592
v 10.967506 6.796288 -21.540590
v 14.297873 0.000000 -18.857574
v 10.967506 6.796288 7.152379
v 20.312506 6.796288 -4.707548
v 20.312506 6.796288 -9.545897
v 16.524237 6.796288 -4.707549
v 16.524237 6.796288 -9.545897
v 10.467506 0.000000 -27.348232
v 26.467506 0.000000 -27.348232
v 10.467506 3.756751 -27.348232
v 26.467506 3.756751 -27.348232
v 26.467506 2.396288 -26.148233
v 10.467506 2.396288 -36.148232
v 10.467506 2.396288 -26.148233
v 26.467506 2.396288 -36.148232
v 26.467506 2.396288 -27.348232
v 10.467506 2.396288 -27.348232
v 20.167507 0.000000 -26.148233
v 19.614531 0.732924 -36.148232
v 20.167507 3.756751 -36.148232
v 20.167507 3.756751 -26.148233
v 20.167507 3.756751 -27.348232
v 20.167507 0.000000 -27.348232
v 19.614531 2.023259 -36.148232
v 20.167507 2.396288 -26.148233
v 17.390482 0.732924 -36.148232
v 16.837505 0.000000 -26.148233
v 17.467506 0.000000 -26.760178
v 19.467506 0.000000 -26.760178
v 16.837505 3.756751 -36.148232
v 16.837505 3.756751 -26.148233
v 16.837505 3.756751 -27.348232
v 16.837505 0.000000 -27.348232
v 16.837505 2.396288 -26.148233
v 17.390482 2.023259 -36.148232
v 7.521248 0.000000 -26.148233
v -2.414511 0.000000 -26.148233
v 7.521248 0.000000 -32.748230
v 7.521248 0.000000 -30.748232
v 7.521248 2.396288 -30.748232
v 7.521248 2.396288 -32.748230
v 10.467506 0.000000 -30.748232
v 10.467506 0.000000 -32.748230
v 10.467506 2.396288 -32.748230
v 10.467506 2.396288 -30.748232
v 7.521248 0.000000 -36.148232
v -2.015536 0.590234 -36.148232
v 7.521248 3.219799 -36.148232
v -2.015536 3.012083 -36.148232
v 7.521248 3.219799 -26.148233
v -2.414511 3.219799 -26.148233
v -2.414510 0.000000 -33.789696
v 7.521248 0.000000 -33.789696
v 7.521248 3.219799 -33.789696
v -2.414510 3.219799 -33.789696
v 7.521248 0.000000 -29.698917
v -2.414510 0.000000 -29.698917
v 7.521248 3.219799 -29.698917
v -2.414510 3.219799 -29.698917
v 5.631909 0.590234 -36.148232
v 6.030884 0.000000 -26.148233
v 6.624176 0.000000 -30.748232
v 6.624176 0.000000 -32.748230
v 5.631909 3.012083 -36.148232
v 6.030884 3.219799 -26.148233
v 6.030884 3.219799 -33.789696
v 6.030884 0.000000 -33.789696
v 6.030884 3.219799 -29.698917
v 6.030884 0.000000 -29.698917
v 24.913609 0.000000 -9.545897
v 24.913609 0.000000 -4.707549
v 16.524237 0.000000 -20.575500
v 20.312506 0.000000 -20.575500
v 12.579945 0.000000 -4.707549
v 12.579945 0.000000 -9.545897
v 24.913609 0.000000 -20.575500
v 24.913610 0.000000 5.838697
v 12.579945 0.000000 5.838697
v 20.312506 0.000000 5.838697
v 16.524237 0.000000 5.838697
v 12.579945 0.000000 -20.575502
v 16.524237 -1.815348 -9.545897
v 14.297873 -1.815348 -9.545897
v 16.524237 -1.815348 -4.707548
v 14.297873 -1.815348 -4.707549
v 23.195681 -1.815348 -9.545897
v 20.312506 -1.815348 -9.545897
v 23.195681 -1.815348 -4.707549
v 20.312506 -1.815348 -4.707548
v 16.524237 -1.815348 -18.857573
v 20.312506 -1.815348 -18.857573
v 20.312506 -1.815348 4.120770
v 16.524237 -1.815348 4.120770
v 23.195681 -1.815348 -18.857573
v 23.195683 -1.815348 4.120770
v 14.297873 -1.815348 4.120770
v 14.297873 -1.815348 -18.857574
v 20.167507 0.000000 -36.148232
v 20.167507 2.396288 -36.148232
v 16.837505 0.000000 -36.148232
v 16.837505 2.396288 -36.148232
v 6.030884 0.000000 -36.148232
v -2.414511 0.000000 -36.148232
v 6.030884 3.219799 -36.148232
v -2.414511 3.219799 -36.148232
v 16.837505 0.000000 -29.966232
v 10.467506 0.000000 -29.966232
v 26.467506 0.000000 -29.966232
v 20.167507 0.000000 -29.966232
v 10.467506 3.756751 -29.966232
v 16.837505 3.756751 -29.966232
v 20.167507 3.756751 -29.966232
v 26.467506 3.756751 -29.966232
v 10.467506 0.000000 -33.462231
v 16.837505 0.000000 -33.462231
v 20.167507 0.000000 -33.462231
v 26.467506 0.000000 -33.462231
v 16.837505 3.756751 -33.462231
v 10.467506 3.756751 -33.462231
v 26.467506 3.756751 -33.462231
v 20.167507 3.756751 -33.462231
v 10.467506 3.076519 -36.148232
v 26.467506 3.076519 -36.148232
v 26.467506 3.076519 -27.348232
v 10.467506 3.076519 -27.348232
v 26.467506 3.076519 -26.148233
v 10.467506 3.076519 -26.148233
v 20.167507 3.076519 -36.148232
v 20.167507 3.076519 -26.148233
v 16.837505 3.076519 -26.148233
v 16.837505 3.076519 -36.148232
v 26.467506 3.076519 -29.966232
v 10.467506 3.076519 -29.966232
v 26.467506 3.076519 -33.462231
v 10.467506 3.076519 -33.462231
v 12.251106 0.000000 -36.148232
v 12.251106 3.756751 -36.148232
v 12.251106 3.756751 -27.348232
v 12.251106 0.000000 -27.348232
v 12.251106 2.396288 -36.148232
v 12.251106 0.000000 -26.148233
v 12.251106 3.756751 -26.148233
v 12.251106 2.396288 -26.148233
v 12.251106 3.756751 -29.966232
v 12.251106 0.000000 -29.966232
v 12.251106 3.756751 -33.462231
v 12.251106 0.000000 -33.462231
v 12.251106 3.076519 -36.148232
v 12.251106 3.076519 -26.148233
v 11.430136 0.000000 -30.748230
v 11.430136 0.000000 -32.748230
v 10.467506 2.396288 -29.378710
v 10.467506 2.396288 -34.051865
v 10.467506 0.000000 -29.378710
v 10.467506 0.000000 -34.051865
v 26.467506 2.396288 -34.051865
v 26.467506 2.396288 -29.378710
v 26.467506 0.000000 -29.378710
v 20.167507 0.000000 -29.378710
v 16.837505 0.000000 -29.378710
v 12.251106 0.000000 -29.378710
v 16.837505 0.000000 -34.051865
v 26.467506 0.000000 -34.051865
v 20.167507 0.000000 -34.051865
v 12.251106 0.000000 -34.051865
v 29.044674 0.000000 -5.646760
v 34.044674 0.000000 -5.646760
v 29.044674 2.796288 -5.646760
v 34.044674 2.796288 -5.646760
v 29.044674 0.000000 -8.845772
v 34.044674 0.000000 -8.845772
v 29.044674 2.796288 -8.845772
v 34.044674 2.796288 -8.845772
v 34.044674 2.486289 -3.716918
v 29.044674 2.486289 -10.671294
v 29.044674 2.486289 -3.716918
v 34.044674 2.486289 -10.671294
v 34.044674 2.486289 -5.646760
v 29.044674 2.486289 -5.646760
v 34.044674 2.486289 -8.845772
v 29.044674 2.486289 -8.845772
v 29.994675 0.000000 -3.716918
v 29.994675 0.000000 -10.671294
v 29.455662 0.000000 -6.324812
v 29.455662 0.000000 -8.063406
v 29.994675 2.796288 -3.716918
v 29.994675 2.796288 -10.671294
v 29.994675 2.796288 -5.646760
v 29.994675 0.000000 -5.646760
v 29.994675 2.796288 -8.845772
v 29.994675 0.000000 -8.845772
v 29.994675 2.486289 -10.671294
v 29.994675 2.486289 -3.716918
v 19.614531 0.732924 -36.449596
v 19.614531 2.023259 -36.449596
v 17.390482 0.732924 -36.449596
v 17.390482 2.023259 -36.449596
v 5.631909 0.590234 -36.331699
v -2.015536 0.590234 -36.331699
v 5.631909 3.012083 -36.331699
v -2.015536 3.012083 -36.331699
vn -1.0000 -0.0000 -0.0000
vn -0.0000 -1.0000 -0.0000
vn -0.0000 -0.0000 1.0000
vn 1.0000 -0.0000 -0.0000
vn -0.0000 1.0000 -0.0000
vn -0.0000 -0.0000 -1.0000
vn 0.0006 -0.0000 1.0000
vt 0.125259 0.884498
vt 0.169809 0.884498
vt 0.169809 0.911137
vt 0.125259 0.911137
vt 0.532472 0.977525
vt 0.550533 0.959396
vt 0.589291 0.959396
vt 0.589291 0.977525
vt 0.061036 0.884498
vt 0.079164 0.884498
vt 0.079164 0.903229
vt 0.061036 0.911137
vt 0.786104 0.977921
vt 0.786104 0.939163
vt 0.804835 0.939163
vt 0.804835 0.977921
vt 0.051199 0.884498
vt 0.051199 0.911137
vt 0.061036 0.965524
vt 0.061036 0.920974
vt 0.115422 0.920974
vt 0.115422 0.965524
vt 0.656367 0.857136
vt 0.616971 0.857136
vt 0.598612 0.838708
vt 0.656367 0.838708
vt 0.588484 0.487742
vt 0.588484 0.432656
vt 0.606643 0.432656
vt 0.606643 0.487742
vt 0.195011 0.665629
vt 0.195011 0.692641
vt 0.179553 0.692641
vt 0.179553 0.673910
vt 0.786104 0.833866
vt 0.804834 0.833866
vt 0.588484 0.312995
vt 0.606643 0.312995
vt 0.532404 0.854099
vt 0.550533 0.854099
vt 0.616971 0.964169
vt 0.598543 0.964169
vt 0.097293 0.903229
vt 0.097293 0.884498
vt 0.115422 0.884498
vt 0.115422 0.911137
vt 0.061036 0.874662
vt 0.061036 0.830112
vt 0.115422 0.830112
vt 0.115422 0.874662
vt 0.006649 0.911137
vt 0.006649 0.884498
vt 0.115422 0.992163
vt 0.061036 0.992163
vt 0.936995 0.607785
vt 0.936995 0.589055
vt 0.969082 0.589055
vt 0.969082 0.607785
vt 0.020893 0.692641
vt 0.020893 0.665629
vt 0.144561 0.665629
vt 0.144560 0.692641
vt 0.936995 0.570926
vt 0.969082 0.570926
vt 0.862709 0.876381
vt 0.862709 0.857650
vt 0.910754 0.857650
vt 0.910754 0.876381
vt 0.862709 0.897235
vt 0.910754 0.897235
vt 0.753318 0.357870
vt 0.759450 0.350571
vt 0.765831 0.350571
vt 0.765831 0.357870
vt 0.936995 0.625914
vt 0.969082 0.625914
vt 0.936995 0.644644
vt 0.969082 0.644644
vt 0.093190 0.452379
vt 0.086119 0.459574
vt 0.086119 0.433648
vt 0.093190 0.433648
vt 0.862709 0.836796
vt 0.910754 0.836796
vt 0.862709 0.915966
vt 0.910754 0.915966
vt 0.379050 0.702704
vt 0.387861 0.698337
vt 0.408716 0.698337
vt 0.418552 0.702704
vt 0.387861 0.692641
vt 0.408716 0.692641
vt 0.728316 0.821125
vt 0.728316 0.805484
vt 0.743957 0.805484
vt 0.743957 0.821125
vt 0.138512 0.433648
vt 0.138512 0.459574
vt 0.119476 0.459574
vt 0.119476 0.433648
vt 0.138512 0.462806
vt 0.119477 0.462806
vt 0.023766 0.518175
vt 0.065996 0.518175
vt 0.065996 0.544100
vt 0.023766 0.544100
vt 0.190648 0.544100
vt 0.180742 0.544100
vt 0.180742 0.518175
vt 0.190648 0.518175
vt 0.086119 0.462806
vt 0.119476 0.472712
vt 0.086119 0.472712
vt 0.086119 0.518175
vt 0.119477 0.518175
vt 0.119476 0.544100
vt 0.086119 0.544100
vt 0.086119 0.586331
vt 0.086119 0.596237
vt 0.065996 0.596237
vt 0.065996 0.586331
vt 0.111319 0.452379
vt 0.111318 0.433648
vt 0.119477 0.586331
vt 0.138512 0.544100
vt 0.138512 0.586331
vt 0.065996 0.514942
vt 0.086119 0.514943
vt 0.138512 0.472712
vt 0.065996 0.472712
vt 0.013860 0.518175
vt 0.013860 0.514942
vt 0.023766 0.514942
vt 0.138512 0.518175
vt 0.138512 0.514942
vt 0.180742 0.514942
vt 0.662414 0.877605
vt 0.662414 0.861964
vt 0.728316 0.861964
vt 0.743957 0.877605
vt 0.881981 0.805484
vt 0.881981 0.821125
vt 0.800437 0.821125
vt 0.800437 0.805484
vt 0.662414 0.764645
vt 0.662414 0.749005
vt 0.743957 0.749005
vt 0.728316 0.764646
vt 0.418552 0.322583
vt 0.379050 0.322583
vt 0.396090 0.304336
vt 0.411731 0.304336
vt 0.379050 0.692641
vt 0.617024 0.673910
vt 0.601566 0.665629
vt 0.652017 0.665629
vt 0.635153 0.673910
vt 0.601566 0.621774
vt 0.652017 0.621774
vt 0.379050 0.278728
vt 0.396090 0.288695
vt 0.411730 0.288695
vt 0.418552 0.278728
vt 0.617024 0.692641
vt 0.601566 0.692641
vt 0.161424 0.673910
vt 0.161424 0.692641
vt 0.621575 0.821125
vt 0.621575 0.805484
vt 0.687478 0.805484
vt 0.687478 0.821125
vt 0.652017 0.692641
vt 0.635153 0.692641
vt 0.020894 0.621774
vt 0.144561 0.621774
vt 0.193895 0.157011
vt 0.193895 0.172551
vt 0.169302 0.172551
vt 0.169302 0.157011
vt 0.861094 0.732227
vt 0.861094 0.757213
vt 0.830373 0.757213
vt 0.830373 0.732227
vt 0.832253 0.231739
vt 0.838822 0.237995
vt 0.838822 0.256725
vt 0.832253 0.256725
vt 0.765831 0.423562
vt 0.753318 0.423562
vt 0.753318 0.323147
vt 0.759450 0.329717
vt 0.753318 0.198954
vt 0.765831 0.198954
vt 0.765831 0.217553
vt 0.753318 0.217553
vt 0.560413 0.224646
vt 0.494721 0.224646
vt 0.494721 0.217553
vt 0.560413 0.217553
vt 0.866976 0.224646
vt 0.832253 0.224646
vt 0.832253 0.217553
vt 0.866976 0.217553
vt 0.753318 0.043623
vt 0.765831 0.043623
vt 0.765831 0.050716
vt 0.753318 0.050716
vt 0.784429 0.224646
vt 0.765831 0.224645
vt 0.784429 0.217552
vt 0.195011 0.621774
vt 0.320084 0.621774
vt 0.320084 0.665629
vt 0.387861 0.673910
vt 0.379050 0.665629
vt 0.418552 0.665629
vt 0.408716 0.673910
vt 0.320084 0.692641
vt 0.331073 0.868164
vt 0.326671 0.851300
vt 0.326671 0.833171
vt 0.331073 0.817713
vt 0.320084 0.851300
vt 0.320084 0.833171
vt 0.418552 0.692641
vt 0.320084 0.868164
vt 0.320084 0.817713
vt 0.418552 0.446250
vt 0.476493 0.446250
vt 0.476493 0.496701
vt 0.418552 0.496701
vt 0.476493 0.851300
vt 0.476493 0.868164
vt 0.459680 0.868164
vt 0.467363 0.851300
vt 0.476493 0.817713
vt 0.476493 0.833171
vt 0.467363 0.833171
vt 0.459680 0.817713
vt 0.884718 0.503662
vt 0.884718 0.543163
vt 0.865789 0.543163
vt 0.865789 0.503662
vt 0.607257 0.543163
vt 0.607257 0.503662
vt 0.626187 0.503662
vt 0.626187 0.543163
vt 0.884718 0.480447
vt 0.865789 0.480447
vt 0.607257 0.573227
vt 0.626187 0.573227
vt 0.418551 0.991831
vt 0.418551 0.978133
vt 0.459680 0.978133
vt 0.476493 0.991831
vt 0.331073 0.702704
vt 0.379050 0.621774
vt 0.418552 0.621774
vt 0.884718 0.573227
vt 0.865789 0.573227
vt 0.320084 0.278728
vt 0.320084 0.251716
vt 0.379050 0.251716
vt 0.320084 0.322583
vt 0.775684 0.665629
vt 0.775684 0.692641
vt 0.320084 0.991831
vt 0.331073 0.978133
vt 0.379050 0.991831
vt 0.379050 0.978133
vt 0.773733 0.592156
vt 0.723282 0.592156
vt 0.723282 0.573227
vt 0.773733 0.573227
vt 0.626187 0.461518
vt 0.723282 0.461517
vt 0.723282 0.480447
vt 0.626187 0.480447
vt 0.476493 0.621774
vt 0.476493 0.665629
vt 0.476493 0.692641
vt 0.459680 0.702704
vt 0.626187 0.592156
vt 0.773733 0.461517
vt 0.865789 0.461517
vt 0.773733 0.480447
vt 0.418552 0.251716
vt 0.476493 0.251716
vt 0.476493 0.278728
vt 0.476493 0.322583
vt 0.775684 0.621774
vt 0.320084 0.446250
vt 0.379050 0.446250
vt 0.379050 0.496701
vt 0.320084 0.496701
vt 0.765831 0.116408
vt 0.753318 0.116408
vt 0.765831 0.275323
vt 0.753318 0.275323
vt 0.753318 0.256725
vt 0.765831 0.256725
vt 0.765831 0.011543
vt 0.765831 0.036530
vt 0.753318 0.036530
vt 0.753318 0.011543
vt 0.753318 0.224646
vt 0.560413 0.231739
vt 0.560413 0.256725
vt 0.494721 0.256725
vt 0.494721 0.231739
vt 0.859676 0.237995
vt 0.866976 0.231739
vt 0.866976 0.256725
vt 0.859676 0.256725
vt 0.560163 0.880970
vt 0.560163 0.857779
vt 0.563305 0.857779
vt 0.563305 0.880970
vt 0.784429 0.231739
vt 0.784429 0.256725
vt 0.765831 0.231738
vt 0.753318 0.231739
vt 0.765831 0.329717
vt 0.932668 0.231739
vt 0.932668 0.256725
vt 0.932668 0.224645
vt 0.932668 0.217553
vt 0.236551 0.157011
vt 0.236551 0.068948
vt 0.273575 0.068948
vt 0.273575 0.157011
vt 0.642960 0.231739
vt 0.661558 0.231739
vt 0.661558 0.256725
vt 0.642960 0.256725
vt 0.595136 0.224646
vt 0.595136 0.217553
vt 0.765831 0.323147
vt 0.236551 0.206125
vt 0.236551 0.172551
vt 0.273575 0.172551
vt 0.273575 0.206125
vt 0.765831 0.151131
vt 0.753318 0.151131
vt 0.642960 0.224646
vt 0.642960 0.217553
vt 0.861094 0.686385
vt 0.861094 0.711372
vt 0.830373 0.711372
vt 0.830373 0.686385
vt 0.193895 0.221665
vt 0.193895 0.309728
vt 0.169302 0.309728
vt 0.169302 0.221665
vt 0.236551 0.221665
vt 0.273575 0.221665
vt 0.236551 0.309728
vt 0.236551 0.343302
vt 0.193895 0.343302
vt 0.689565 0.151131
vt 0.689565 0.116408
vt 0.726019 0.116408
vt 0.726019 0.151131
vt 0.861094 0.665531
vt 0.830373 0.665531
vt 0.726019 0.357870
vt 0.726019 0.423562
vt 0.689565 0.423562
vt 0.689565 0.357870
vt 0.689565 0.323147
vt 0.726019 0.323147
vt 0.689565 0.050716
vt 0.726019 0.050716
vt 0.661558 0.151131
vt 0.689565 0.198954
vt 0.661558 0.198954
vt 0.732145 0.036530
vt 0.726019 0.043623
vt 0.726019 0.011543
vt 0.732145 0.011543
vt 0.717865 0.231739
vt 0.726019 0.224646
vt 0.726019 0.256725
vt 0.717865 0.256725
vt 0.661558 0.224646
vt 0.732146 0.357870
vt 0.732146 0.423562
vt 0.726019 0.198954
vt 0.689565 0.275323
vt 0.726019 0.275323
vt 0.726019 0.217553
vt 0.689565 0.224646
vt 0.661558 0.217552
vt 0.689565 0.217553
vt 0.697011 0.231739
vt 0.661558 0.116408
vt 0.661558 0.050716
vt 0.683417 0.357870
vt 0.661558 0.357870
vt 0.661558 0.323147
vt 0.683417 0.323147
vt 0.225609 0.197538
vt 0.225609 0.172551
vt 0.193895 0.068948
vt 0.289115 0.172551
vt 0.289115 0.206125
vt 0.169302 0.343302
vt 0.420991 0.003476
vt 0.420991 0.029174
vt 0.419044 0.029174
vt 0.419044 0.003476
vt 0.193895 0.206125
vt 0.204755 0.197538
vt 0.204755 0.172551
vt 0.273575 0.309728
vt 0.273575 0.343302
vt 0.204755 0.163197
vt 0.169302 0.206125
vt 0.153761 0.206125
vt 0.153761 0.172551
vt 0.377178 0.172551
vt 0.377178 0.206125
vt 0.169302 0.068948
vt 0.225609 0.163197
vt 0.348986 0.817713
vt 0.348986 0.868164
vt 0.418552 0.720617
vt 0.379050 0.720617
vt 0.441767 0.868164
vt 0.441767 0.817713
vt 0.348986 0.720617
vt 0.348986 0.960219
vt 0.441766 0.960219
vt 0.379050 0.960219
vt 0.418551 0.960219
vt 0.441767 0.720617
vt 0.723282 0.503662
vt 0.773733 0.503662
vt 0.723282 0.543163
vt 0.773733 0.543163
vt 0.865789 0.592156
vt 0.607257 0.480447
vt 0.566179 0.235628
vt 0.566179 0.249083
vt 0.589370 0.249083
vt 0.595136 0.256725
vt 0.589370 0.235628
vt 0.595136 0.231739
vt 0.149601 0.178706
vt 0.069859 0.178706
vt 0.065699 0.172551
vt 0.069859 0.203959
vt 0.149601 0.203959
vt 0.065699 0.206125
vt 0.732146 0.323147
vt 0.732146 0.256725
vt 0.732146 0.231739
vt 0.661558 0.043623
vt 0.689565 0.043623
vt 0.683417 0.423562
vt 0.683417 0.036530
vt 0.661558 0.036530
vt 0.697011 0.256725
vt 0.689565 0.256725
vt 0.732146 0.275323
vt 0.661558 0.275323
vt 0.683417 0.275323
vt 0.717865 0.266763
vt 0.697011 0.266763
vt 0.683417 0.231739
vt 0.683417 0.256725
vt 0.661558 0.423562
vt 0.689565 0.011543
vt 0.683417 0.011543
vt 0.661558 0.011543
vt 0.065996 0.459574
vt 0.065996 0.462806
vt 0.119477 0.514942
vt 0.065996 0.433648
vt 0.013860 0.544100
vt 0.190648 0.514942
vt 0.119477 0.596237
vt 0.138512 0.596237
vt 0.111319 0.596237
vt 0.093190 0.596237
vt 0.093190 0.591951
vt 0.111319 0.591951
vt 0.576760 0.857779
vt 0.576760 0.880970
vt 0.576760 0.884112
vt 0.563305 0.884112
vt 0.563305 0.854637
vt 0.576760 0.854637
vt 0.579902 0.857779
vt 0.579902 0.880970
vt 0.921399 0.834950
vt 0.946652 0.834950
vt 0.946652 0.914692
vt 0.921399 0.914692
vt 0.420991 0.110319
vt 0.419044 0.110319
vt 0.420991 0.136017
vt 0.419044 0.136017
vt 0.420991 0.217162
vt 0.419044 0.217162
s 0
f 24/1/1 4/2/1 3/3/1 22/4/1
f 15/5/2 16/6/2 12/7/2 11/8/2
f 6/9/3 10/10/3 11/11/3 5/12/3
f 12/13/1 16/14/1 13/15/1 9/16/1
f 21/17/4 6/9/4 5/12/4 23/18/4
f 7/19/2 23/20/2 22/21/2 3/22/2
f 9/23/5 13/24/5 14/25/5 10/26/5
f 10/27/4 14/28/4 15/29/4 11/30/4
f 94/31/1 70/32/1 28/33/1 27/34/1
f 16/14/6 18/35/6 17/36/6 13/15/6
f 14/28/7 19/37/7 20/38/7 15/29/7
f 20/39/2 18/40/2 16/6/2 15/5/2
f 13/24/5 17/41/5 19/42/5 14/25/5
f 12/43/3 9/44/3 2/45/3 1/46/3
f 2/45/1 24/1/1 22/4/1 1/46/1
f 21/47/5 8/48/5 4/49/5 24/50/5
f 7/51/4 8/52/4 21/17/4 23/18/4
f 4/53/6 8/54/6 7/19/6 3/22/6
f 21/47/5 24/50/5 9/44/5 10/10/5
f 6/9/5 21/47/5 10/10/5
f 24/50/5 2/45/5 9/44/5
f 27/55/3 28/56/3 37/57/3 38/58/3
f 31/59/1 92/60/1 91/61/1 73/62/1
f 28/56/5 26/63/5 39/64/5 37/57/5
f 48/65/4 50/66/4 42/67/4 44/68/4
f 49/69/2 48/65/2 44/68/2 43/70/2
f 142/71/5 148/72/5 41/73/5 137/74/5
f 25/75/2 27/55/2 38/58/2 40/76/2
f 26/77/6 25/75/6 40/76/6 39/78/6
f 40/79/4 298/80/4 285/81/4 39/82/4
f 50/66/5 51/83/5 41/84/5 42/67/5
f 51/85/1 49/69/1 43/70/1 41/86/1
f 192/87/5 102/88/5 30/89/5 191/90/5
f 51/91/5 50/92/5 30/89/5 102/88/5
f 80/93/4 79/94/4 81/95/4 82/96/4
f 53/97/4 294/98/4 300/99/4 289/100/4
f 300/99/4 294/98/4 60/101/4 291/102/4
f 312/103/6 293/104/6 56/105/6 301/106/6
f 53/107/3 302/108/3 311/109/3 294/110/3
f 287/111/2 291/102/2 309/112/2 307/113/2
f 297/114/1 299/115/1 290/116/1 286/117/1
f 308/118/5 285/119/5 54/120/5 301/121/5
f 289/100/4 300/99/4 38/122/4 37/123/4
f 310/124/5 290/116/5 55/125/5 302/126/5
f 297/114/1 293/104/1 58/127/1 288/128/1
f 309/112/2 291/102/2 60/101/2 306/129/2
f 307/113/2 288/128/2 58/127/2 305/130/2
f 300/99/4 291/102/4 287/111/4 298/80/4
f 312/103/6 295/131/6 57/132/6 305/133/6
f 290/116/5 310/124/5 308/118/5 286/117/5
f 311/109/3 296/134/3 59/135/3 306/136/3
f 77/137/5 78/138/5 64/139/5 61/140/5
f 76/141/1 77/142/1 61/143/1 62/144/1
f 75/145/2 76/146/2 62/147/2 63/148/2
f 34/149/6 52/150/6 76/151/6 75/152/6
f 99/153/5 51/91/5 102/88/5 192/87/5
f 20/154/4 66/155/4 65/156/4 18/157/4
f 67/158/4 72/159/4 65/156/4 66/155/4
f 76/151/6 52/150/6 45/160/6 77/161/6
f 34/149/6 75/152/6 78/162/6 29/163/6
f 66/155/4 20/154/4 19/164/4 69/165/4
f 62/144/6 61/143/6 82/96/6 81/95/6
f 91/61/1 25/166/1 26/167/1 73/62/1
f 45/160/6 29/163/6 78/162/6 77/161/6
f 78/168/4 75/169/4 63/170/4 64/171/4
f 18/157/4 65/156/4 74/172/4 17/173/4
f 92/60/1 35/174/1 71/175/1 91/61/1
f 63/148/2 62/147/2 81/95/2 79/94/2
f 64/171/3 63/170/3 79/94/3 80/93/3
f 5/12/2 1/46/2 22/21/2 23/20/2
f 186/176/5 172/177/5 165/178/5 221/179/5
f 164/180/6 161/181/6 158/182/6 159/183/6
f 153/184/6 44/185/6 42/186/6 146/187/6
f 142/71/5 137/74/5 84/188/5 128/189/5
f 152/190/5 147/191/5 148/72/5 142/71/5
f 257/192/2 261/193/2 88/194/2 129/195/2
f 247/196/3 242/197/3 89/198/3 139/199/3
f 248/200/6 249/201/6 150/202/6 140/203/6
f 243/204/1 245/205/1 90/206/1 130/207/1
f 268/208/6 246/209/6 88/194/6 261/210/6
f 11/11/3 12/43/3 1/46/3 5/12/3
f 71/175/1 68/211/1 94/31/1 91/61/1
f 94/31/1 27/34/1 25/166/1 91/61/1
f 68/211/1 36/212/1 93/213/1 94/31/1
f 49/214/3 32/215/3 95/216/3 48/217/3
f 94/31/1 93/213/1 33/218/1 70/32/1
f 190/219/5 101/220/5 100/221/5 189/222/5
f 26/223/5 28/224/5 100/221/5 101/220/5
f 50/92/5 96/225/5 191/90/5 30/89/5
f 73/226/5 26/223/5 101/220/5 190/219/5
f 28/224/5 70/227/5 189/222/5 100/221/5
f 95/216/3 96/225/3 50/92/3 48/217/3
f 49/214/3 51/91/3 99/153/3 32/215/3
f 125/228/2 72/229/2 67/230/2 126/231/2
f 64/139/5 80/93/5 82/96/5 61/140/5
f 17/232/5 74/233/5 193/234/5 105/235/5
f 69/236/5 19/237/5 106/238/5 194/239/5
f 19/237/5 17/232/5 105/235/5 106/238/5
f 194/239/5 106/238/5 105/235/5 193/234/5
f 117/240/6 116/241/6 211/242/6 212/243/6
f 104/244/3 103/245/3 209/246/3 210/247/3
f 115/248/6 117/240/6 212/243/6 215/249/6
f 111/250/3 104/244/3 210/247/3 213/251/3
f 46/252/5 199/253/5 197/254/5 110/255/5
f 195/256/5 189/222/5 70/227/5 33/218/5
f 192/87/5 195/256/5 33/218/5 99/153/5
f 32/215/3 99/153/3 33/218/3 93/213/3
f 112/257/3 32/215/3 93/213/3 36/212/3
f 95/216/3 32/215/3 112/257/3 113/258/3
f 116/241/6 114/259/6 214/260/6 211/242/6
f 45/160/6 92/261/6 31/262/6 47/263/6
f 35/264/6 92/261/6 45/160/6 52/150/6
f 74/172/4 65/156/4 109/265/4 110/266/4
f 31/267/5 73/226/5 190/219/5 196/268/5
f 193/234/5 74/233/5 110/255/5 197/254/5
f 47/269/5 31/267/5 196/268/5 198/270/5
f 46/252/5 47/269/5 198/270/5 199/253/5
f 97/271/1 98/272/1 205/273/1 207/274/1
f 121/275/4 107/276/4 202/277/4 216/278/4
f 95/216/3 113/258/3 120/279/3 118/280/3
f 96/225/3 95/216/3 118/280/3 119/281/3
f 69/165/4 119/281/4 118/280/4 66/155/4
f 67/158/4 66/155/4 118/280/4 120/279/4
f 191/90/5 96/225/5 119/281/5 200/282/5
f 200/282/5 119/281/5 69/236/5 194/239/5
f 98/272/1 111/283/1 213/251/1 205/273/1
f 108/284/4 115/285/4 215/249/4 204/286/4
f 29/163/6 46/287/6 110/288/6 109/289/6
f 46/287/6 29/163/6 45/160/6 47/263/6
f 34/149/6 29/163/6 109/289/6 122/290/6
f 122/291/4 109/265/4 65/156/4 72/159/4
f 71/292/2 123/293/2 124/294/2 68/295/2
f 123/293/2 125/228/2 126/231/2 124/294/2
f 123/293/2 71/292/2 35/264/2 52/150/2
f 125/228/2 123/293/2 52/150/2 34/149/2
f 72/229/2 125/228/2 34/149/2 122/290/2
f 126/231/2 67/230/2 120/279/2 113/258/2
f 124/294/2 126/231/2 113/258/2 112/257/2
f 68/295/2 124/294/2 112/257/2 36/212/2
f 140/296/2 141/297/2 130/207/2 90/206/2
f 260/298/5 258/299/5 127/300/5 83/301/5
f 84/302/1 131/303/1 135/304/1 128/305/1
f 246/209/4 244/306/4 129/195/4 88/194/4
f 218/307/3 217/308/3 86/309/3 134/310/3
f 43/311/6 144/312/6 137/313/6 41/314/6
f 143/315/2 154/316/2 316/317/2 314/318/2
f 144/312/6 43/311/6 44/185/6 153/184/6
f 262/319/6 260/320/6 83/301/6 133/321/6
f 127/300/4 136/322/4 133/321/4 83/301/4
f 41/73/5 148/72/5 147/191/5 42/323/5
f 137/313/6 144/312/6 131/324/6 84/325/6
f 245/326/6 248/200/6 140/203/6 90/327/6
f 188/328/5 176/329/5 156/330/5 180/331/5
f 259/332/3 132/333/3 85/334/3 255/335/3
f 250/336/3 247/196/3 139/199/3 149/337/3
f 42/323/5 147/191/5 152/190/5 146/338/5
f 177/339/1 175/340/1 155/341/1 169/342/1
f 140/296/2 150/343/2 151/344/2 141/297/2
f 267/345/3 250/336/3 149/337/3 256/346/3
f 162/347/3 163/348/3 160/349/3 157/350/3
f 163/348/2 164/180/2 159/183/2 160/349/2
f 185/351/2 174/352/2 224/353/2 223/354/2
f 187/355/2 177/339/2 169/342/2 184/356/2
f 174/352/4 178/357/4 176/358/4 171/359/4
f 237/360/2 240/361/2 231/362/2 230/363/2
f 161/364/5 162/347/5 157/350/5 158/365/5
f 228/366/5 227/367/5 236/368/5 235/369/5
f 228/366/5 235/369/5 234/370/5 225/371/5
f 231/362/2 240/361/2 239/372/2 232/373/2
f 149/374/2 237/360/2 265/375/2 256/376/2
f 276/377/1 251/378/1 227/379/1 277/380/1
f 164/381/4 252/382/4 226/383/4 161/384/4
f 132/333/3 259/332/3 267/345/3 241/385/3
f 278/386/5 142/71/5 128/189/5 277/387/5
f 263/388/2 265/375/2 237/360/2 230/363/2
f 234/370/5 266/389/5 264/390/5 225/371/5
f 263/388/2 257/192/2 129/195/2 229/391/2
f 254/392/4 241/385/4 87/393/4 238/394/4
f 252/382/4 164/381/4 163/395/4 254/392/4
f 251/378/1 243/204/1 130/207/1 232/373/1
f 240/361/2 139/396/2 89/397/2 239/372/2
f 283/398/5 217/399/5 219/400/5 281/401/5
f 240/361/2 237/360/2 149/374/2 139/396/2
f 177/339/1 159/402/1 158/403/1 175/340/1
f 188/328/5 186/176/5 171/404/5 176/329/5
f 155/341/6 180/405/6 184/406/6 169/342/6
f 174/352/4 171/359/4 222/407/4 224/353/4
f 179/408/1 183/409/1 319/410/1 317/411/1
f 173/412/1 160/413/1 159/402/1 177/339/1
f 160/413/1 173/412/1 172/177/1 157/414/1
f 176/358/4 178/357/4 170/415/4 156/416/4
f 173/412/2 177/339/2 187/355/2 185/351/2
f 182/417/5 157/414/5 172/177/5 186/176/5
f 185/351/2 187/355/2 178/357/2 174/352/2
f 165/178/3 167/418/3 223/419/3 221/420/3
f 172/177/1 173/412/1 167/418/1 165/178/1
f 184/406/6 180/405/6 156/421/6 170/422/6
f 178/357/2 187/355/2 184/356/2 170/415/2
f 173/412/2 185/351/2 223/354/2 167/418/2
f 175/340/5 188/328/5 180/331/5 155/341/5
f 171/404/5 186/176/5 221/179/5 222/423/5
f 158/403/5 157/414/5 182/417/5 181/424/5
f 181/424/5 182/417/5 186/176/5 188/328/5
f 158/403/5 181/424/5 188/328/5 175/340/5
f 98/425/5 97/426/5 190/219/5 189/222/5
f 103/427/5 104/428/5 192/87/5 191/90/5
f 108/429/5 107/430/5 194/239/5 193/234/5
f 111/431/5 98/425/5 189/222/5 195/256/5
f 104/428/5 111/431/5 195/256/5 192/87/5
f 97/426/5 114/432/5 196/268/5 190/219/5
f 115/433/5 108/429/5 193/234/5 197/254/5
f 114/432/5 116/434/5 198/270/5 196/268/5
f 116/434/5 117/435/5 199/253/5 198/270/5
f 121/436/5 103/427/5 191/90/5 200/282/5
f 107/430/5 121/436/5 200/282/5 194/239/5
f 117/435/5 115/433/5 197/254/5 199/253/5
f 201/437/5 202/277/5 204/286/5 203/438/5
f 205/273/5 206/439/5 208/440/5 207/274/5
f 206/439/5 201/437/5 203/438/5 208/440/5
f 209/246/5 201/437/5 206/439/5 210/247/5
f 206/439/5 205/273/5 213/251/5 210/247/5
f 211/242/5 214/260/5 207/274/5 208/440/5
f 212/243/5 211/242/5 208/440/5 203/438/5
f 209/246/5 216/278/5 202/277/5 201/437/5
f 212/243/5 203/438/5 204/286/5 215/249/5
f 114/441/1 97/271/1 207/274/1 214/260/1
f 107/276/4 108/284/4 204/286/4 202/277/4
f 103/245/3 121/442/3 216/278/3 209/246/3
f 143/443/3 138/444/3 217/308/3 218/307/3
f 138/444/3 145/445/3 219/446/3 217/308/3
f 154/447/3 143/443/3 218/307/3 220/448/3
f 145/445/3 154/447/3 220/448/3 219/446/3
f 179/449/3 166/450/3 222/451/3 221/420/3
f 168/452/3 183/453/3 223/419/3 224/454/3
f 166/450/3 168/452/3 224/454/3 222/451/3
f 183/453/3 179/449/3 221/420/3 223/419/3
f 141/297/2 151/344/2 230/363/2 231/362/2
f 278/386/5 228/366/5 225/371/5 279/455/5
f 141/297/2 231/362/2 232/373/2 130/207/2
f 244/306/4 252/382/4 229/391/4 129/195/4
f 273/456/4 271/457/4 136/322/4 127/300/4
f 242/458/1 253/459/1 239/372/1 89/397/1
f 256/376/2 265/375/2 238/394/2 87/393/2
f 283/398/5 235/369/5 236/368/5 282/460/5
f 153/184/6 262/319/6 268/208/6 249/201/6
f 254/392/4 238/394/4 229/391/4 252/382/4
f 251/378/1 232/373/1 239/372/1 253/459/1
f 275/461/1 253/459/1 242/458/1 134/462/1
f 254/392/4 163/395/4 162/463/4 233/464/4
f 259/332/3 220/448/3 250/336/3 267/345/3
f 220/448/3 218/307/3 247/196/3 250/336/3
f 131/324/6 144/312/6 248/200/6 245/326/6
f 133/321/4 136/322/4 244/306/4 246/209/4
f 262/319/6 133/321/6 246/209/6 268/208/6
f 135/304/1 131/303/1 245/205/1 243/204/1
f 144/312/6 153/184/6 249/201/6 248/200/6
f 218/307/3 134/310/3 242/197/3 247/196/3
f 279/455/5 225/371/5 264/390/5 280/465/5
f 263/388/2 229/391/2 238/394/2 265/375/2
f 230/363/2 151/344/2 257/192/2 263/388/2
f 281/401/5 219/400/5 255/466/5 284/467/5
f 241/385/3 267/345/3 256/346/3 87/393/3
f 220/448/3 259/332/3 255/335/3 219/446/3
f 153/184/6 146/187/6 260/320/6 262/319/6
f 146/338/5 152/190/5 258/299/5 260/298/5
f 249/201/6 268/208/6 261/210/6 150/202/6
f 151/344/2 150/343/2 261/193/2 257/192/2
f 161/384/5 226/383/5 264/390/5 269/468/5
f 270/469/5 266/389/5 233/464/5 162/463/5
f 270/469/5 162/463/5 161/384/5 269/468/5
f 266/389/5 270/469/5 269/468/5 264/390/5
f 271/457/4 252/382/4 244/306/4 136/322/4
f 132/333/4 241/385/4 254/392/4 272/470/4
f 226/383/4 252/382/4 271/457/4 273/456/4
f 274/471/4 272/470/4 254/392/4 233/464/4
f 85/334/4 132/333/4 272/470/4 274/471/4
f 135/304/1 243/204/1 251/378/1 276/377/1
f 152/190/5 279/455/5 280/465/5 258/299/5
f 142/71/5 278/386/5 279/455/5 152/190/5
f 228/366/5 278/386/5 277/387/5 227/367/5
f 234/370/5 281/401/5 284/467/5 266/389/5
f 217/399/5 283/398/5 282/460/5 86/472/5
f 235/369/5 283/398/5 281/401/5 234/370/5
f 251/378/1 253/459/1 236/473/1 227/379/1
f 282/474/1 236/473/1 253/459/1 275/461/1
f 86/475/1 282/474/1 275/461/1 134/462/1
f 135/304/1 276/377/1 277/380/1 128/305/1
f 280/465/5 264/390/5 226/383/5 273/456/5
f 258/299/5 280/465/5 273/456/5 127/300/5
f 274/471/5 233/464/5 266/389/5 284/467/5
f 85/334/5 274/471/5 284/467/5 255/466/5
f 56/105/1 293/104/1 297/114/1 286/117/1
f 295/476/4 298/80/4 287/111/4 57/477/4
f 296/134/1 299/115/1 292/478/1 59/135/1
f 290/116/1 299/115/1 296/134/1 55/125/1
f 300/99/4 298/80/4 40/79/4 38/122/4
f 55/125/3 296/134/3 311/109/3 302/108/3
f 285/81/4 298/80/4 295/476/4 54/479/4
f 54/480/6 295/131/6 312/103/6 301/106/6
f 288/128/2 307/113/2 309/112/2 292/478/2
f 294/110/3 311/109/3 306/136/3 60/481/3
f 293/104/6 312/103/6 305/133/6 58/127/6
f 287/111/2 307/113/2 305/130/2 57/477/2
f 292/478/2 309/112/2 306/129/2 59/135/2
f 289/482/5 310/124/5 302/126/5 53/483/5
f 286/117/5 308/118/5 301/121/5 56/105/5
f 37/484/5 39/485/5 303/486/5 304/487/5
f 297/114/1 288/128/1 292/478/1 299/115/1
f 303/486/5 39/485/5 285/119/5 308/118/5
f 304/487/5 303/486/5 308/118/5 310/124/5
f 37/484/5 304/487/5 310/124/5 289/482/5
f 316/317/3 315/488/3 313/489/3 314/318/3
f 138/490/1 143/491/1 314/318/1 313/489/1
f 154/492/4 145/493/4 315/488/4 316/317/4
f 145/494/5 138/495/5 313/489/5 315/488/5
f 317/496/3 319/497/3 320/498/3 318/499/3
f 183/409/2 168/500/2 320/501/2 319/410/2
f 168/500/4 166/502/4 318/503/4 320/501/4
f 166/502/5 179/504/5 317/505/5 318/503/5
