# Blender 5.0.0
# www.blender.org
o nightmare_world
v 0.869297 0.000000 -6.324812
v -0.869297 -0.000000 -8.056882
v -0.869297 1.796288 -8.056882
v 0.869297 1.796288 -6.324812
v 10.967506 0.000000 -6.324812
v 10.967506 1.796288 -6.324812
v 10.967506 0.000000 -8.063406
v 10.967506 1.796288 -8.063406
v 25.967506 1.796288 -6.324812
v 25.967506 0.000000 -6.324812
v 25.967506 1.796288 -8.063406
v 25.967506 0.000000 -8.063406
v 16.524237 2.590474 7.152380
v 17.467506 0.000000 -20.994303
v 25.967506 0.000000 7.152380
v 20.312508 2.590474 -21.540590
v 25.967506 0.000000 -21.540590
v 16.524237 6.796288 7.152380
v 25.967506 6.796288 7.152380
v 25.967506 6.796288 -21.540590
v 29.044674 0.000000 -8.063406
v 29.044674 1.796288 -8.063406
v 29.044674 0.000000 -6.324812
v 29.044674 1.796288 -6.324812
v 19.467506 0.000000 -26.148233
v 17.467506 0.000000 -26.148233
v 19.467506 1.796288 -26.148233
v 17.467506 1.796288 -26.148233
v 20.312506 2.590474 7.152380
v 16.524237 0.000000 7.152380
v 20.312506 0.000000 7.152380
v 17.467506 1.796288 -21.540590
v 19.467506 1.796288 -21.540590
v 17.467506 0.000000 -21.540590
v 19.467506 0.000000 -21.540590
v 20.312506 6.796288 7.152380
v 18.678392 3.546288 14.972578
v 18.678392 5.046288 14.972578
v 17.178392 5.046288 13.472578
v 17.178392 3.546288 13.472578
v 10.967506 2.590474 -4.707549
v 10.967506 2.590474 -9.545897
v 10.967506 6.796288 -9.545897
v 25.967506 6.796288 -9.545897
v 10.967506 0.000000 -9.545897
v 25.967506 0.000000 -9.545897
v 25.967506 6.796288 -4.707549
v 10.967506 6.796288 -4.707549
v 25.967506 0.000000 -4.707549
v 10.967506 0.000000 -4.707549
v 17.178392 5.046288 7.152380
v 18.678392 5.046288 7.152380
v 18.678392 3.546288 7.152380
v 17.178392 3.546288 7.152380
v 13.404469 3.546288 13.615161
v 13.404469 3.546288 14.829995
v 10.467506 0.000000 -26.148233
v 26.467506 0.000000 -26.148233
v 10.467506 0.000000 -36.148232
v 26.467506 0.000000 -36.148232
v 10.467506 3.756751 -36.148232
v 10.467506 3.756751 -26.148233
v 26.467506 3.756751 -36.148232
v 26.467506 3.756751 -26.148233
v 25.967506 2.590474 -4.707549
v 25.967506 2.590474 7.152380
v 25.967506 2.590474 -21.540590
v 25.967506 2.590474 -9.545897
v 16.524239 2.590474 -21.540590
v 16.524237 0.000000 -21.540590
v 23.195681 0.000000 -4.707549
v 23.195681 0.000000 -9.545897
v 20.312506 0.000000 -21.540590
v 25.335733 0.000000 -8.063406
v 25.335733 0.000000 -6.324812
v 19.467506 0.000000 -20.994303
v 16.524237 0.000000 -18.857573
v 20.312506 0.000000 -18.857573
v 11.843123 0.000000 -6.324812
v 11.843123 0.000000 -8.063406
v 14.297873 0.000000 -9.545897
v 14.297873 0.000000 -4.707549
v 10.967506 2.590474 7.152380
v 10.967506 0.000000 7.152380
v 23.195681 0.000000 -18.857573
v 20.312508 6.796288 -21.540590
v 16.524239 6.796288 -21.540590
v 23.195683 0.000000 4.120770
v 14.297873 0.000000 4.120770
v 20.312506 0.000000 4.120770
v 16.524237 0.000000 4.120770
v 10.967506 2.590474 -21.540592
v 10.967506 0.000000 -21.540592
v 10.967506 6.796288 -21.540590
v 14.297873 0.000000 -18.857574
v 10.967506 6.796288 7.152379
v 20.312506 6.796288 -4.707548
v 20.312506 6.796288 -9.545897
v 16.524237 6.796288 -4.707549
v 16.524237 6.796288 -9.545897
v 10.467506 0.000000 -27.348232
v 26.467506 0.000000 -27.348232
v 10.467506 3.756751 -27.348232
v 26.467506 3.756751 -27.348232
v 26.467506 2.396288 -26.148233
v 10.467506 2.396288 -36.148232
v 10.467506 2.396288 -26.148233
v 26.467506 2.396288 -36.148232
v 26.467506 2.396288 -27.348232
v 10.467506 2.396288 -27.348232
v 20.167507 0.000000 -26.148233
v 19.614531 0.732924 -36.148232
v 20.167507 3.756751 -36.148232
v 20.167507 3.756751 -26.148233
v 20.167507 3.756751 -27.348232
v 20.167507 0.000000 -27.348232
v 19.614531 2.023259 -36.148232
v 20.167507 2.396288 -26.148233
v 17.390482 0.732924 -36.148232
v 16.837505 0.000000 -26.148233
v 17.467506 0.000000 -26.760178
v 19.467506 0.000000 -26.760178
v 16.837505 3.756751 -36.148232
v 16.837505 3.756751 -26.148233
v 16.837505 3.756751 -27.348232
v 16.837505 0.000000 -27.348232
v 16.837505 2.396288 -26.148233
v 17.390482 2.023259 -36.148232
v 7.521248 0.000000 -26.148233
v -2.414511 0.000000 -26.148233
v 7.521248 0.000000 -32.748230
v 7.521248 0.000000 -30.748232
v 7.521248 2.396288 -30.748232
v 7.521248 2.396288 -32.748230
v 10.467506 0.000000 -30.748232
v 10.467506 0.000000 -32.748230
v 26.467506 0.000000 -30.748232
v 26.467506 0.000000 -32.748230
v 10.467506 3.756751 -30.748232
v 10.467506 3.756751 -32.748230
v 26.467506 3.756751 -30.748232
v 26.467506 3.756751 -32.748230
v 26.467506 2.396288 -32.748230
v 26.467506 2.396288 -30.748232
v 10.467506 2.396288 -32.748230
v 10.467506 2.396288 -30.748232
v 20.167507 0.000000 -32.748230
v 20.167507 0.000000 -30.748232
v 20.167507 3.756751 -32.748230
v 20.167507 3.756751 -30.748232
v 16.837505 3.756751 -30.748232
v 16.837505 3.756751 -32.748230
v 16.837505 0.000000 -32.748230
v 16.837505 0.000000 -30.748232
v 7.521248 0.000000 -36.148232
v -2.015536 0.590234 -36.148232
v 7.521248 3.219799 -36.148232
v -2.015536 3.012083 -36.148232
v 7.521248 3.219799 -26.148233
v -2.414511 3.219799 -26.148233
v -2.414510 0.000000 -33.789696
v 7.521248 0.000000 -33.789696
v 7.521248 3.219799 -33.789696
v -2.414510 3.219799 -33.789696
v 7.521248 0.000000 -29.698917
v -2.414510 0.000000 -29.698917
v 7.521248 3.219799 -29.698917
v -2.414510 3.219799 -29.698917
v 5.631909 0.590234 -36.148232
v 6.030884 0.000000 -26.148233
v 6.624176 0.000000 -30.748232
v 6.624176 0.000000 -32.748230
v 5.631909 3.012083 -36.148232
v 6.030884 3.219799 -26.148233
v 6.030884 3.219799 -33.789696
v 6.030884 0.000000 -33.789696
v 6.030884 3.219799 -29.698917
v 6.030884 0.000000 -29.698917
v 24.913609 0.000000 -9.545897
v 24.913609 0.000000 -4.707549
v 16.524237 0.000000 -20.575500
v 20.312506 0.000000 -20.575500
v 12.579945 0.000000 -4.707549
v 12.579945 0.000000 -9.545897
v 24.913609 0.000000 -20.575500
v 24.913610 0.000000 5.838697
v 12.579945 0.000000 5.838697
v 20.312506 0.000000 5.838697
v 16.524237 0.000000 5.838697
v 12.579945 0.000000 -20.575502
v 17.036568 -1.815348 -8.613661
v 14.297873 -1.815348 -9.545897
v 17.036568 -1.815348 -5.639784
v 14.297873 -1.815348 -4.707549
v 23.195681 -1.815348 -9.545897
v 19.800175 -1.815348 -8.613661
v 23.195681 -1.815348 -4.707549
v 19.800175 -1.815348 -5.639784
v 16.524237 -1.815348 -18.857573
v 20.312506 -1.815348 -18.857573
v 20.312506 -1.815348 4.120770
v 16.298910 -2.040675 4.120770
v 23.195681 -1.815348 -18.857573
v 23.195683 -1.815348 4.120770
v 14.523200 -2.040675 4.120770
v 14.297873 -1.815348 -18.857574
v 20.167507 0.000000 -36.148232
v 20.167507 2.396288 -36.148232
v 16.837505 0.000000 -36.148232
v 16.837505 2.396288 -36.148232
v 14.871341 5.046288 13.472578
v 14.728758 3.546288 13.615161
v 14.871341 5.046288 14.972578
v 14.728758 3.546288 14.829995
v 14.871341 5.645596 15.571885
v 12.662579 5.645596 15.571885
v 12.662579 3.546288 15.571885
v 12.662579 3.546288 12.873271
v 12.662579 5.645596 12.873271
v 14.871341 5.645596 12.873271
v 14.871341 3.546288 12.873271
v 14.871341 3.546288 15.571885
v 13.261886 3.546288 13.472578
v 13.261886 3.546288 14.972578
v 14.871341 3.546288 13.472578
v 14.871341 3.546288 14.972578
v 13.404469 1.892043 13.615161
v 13.404469 1.892043 14.829995
v 14.728758 1.892043 13.615161
v 14.728758 1.892043 14.829995
v 19.467506 0.000000 -46.448231
v 17.467506 0.000000 -46.448231
v 19.467506 1.796288 -46.448231
v 17.467506 1.796288 -46.448231
v 10.467506 0.000000 -46.448231
v 26.467506 0.000000 -46.448231
v 10.467506 0.000000 -36.448231
v 26.467506 0.000000 -36.448231
v 10.467506 3.756751 -36.448231
v 10.467506 3.756751 -46.448231
v 26.467506 3.756751 -36.448231
v 26.467506 3.756751 -46.448231
v 10.467506 0.000000 -45.248230
v 26.467506 0.000000 -45.248230
v 10.467506 3.756751 -45.248230
v 26.467506 3.756751 -45.248230
v 26.467506 2.396288 -46.448231
v 10.467506 2.396288 -36.448231
v 10.467506 2.396288 -46.448231
v 26.467506 2.396288 -36.448231
v 26.467506 2.396288 -45.248230
v 10.467506 2.396288 -45.248230
v 20.167507 0.000000 -46.448231
v 19.614529 0.732924 -36.448231
v 20.167507 3.756751 -36.448231
v 20.167507 3.756751 -46.448231
v 20.167507 3.756751 -45.248230
v 20.167507 0.000000 -45.248230
v 19.614529 2.023259 -36.448231
v 20.167507 2.396288 -46.448231
v 17.390482 0.732924 -36.448231
v 16.837505 0.000000 -46.448231
v 17.467506 0.000000 -45.836285
v 19.467506 0.000000 -45.836285
v 16.837505 3.756751 -36.448231
v 16.837505 3.756751 -46.448231
v 16.837505 3.756751 -45.248230
v 16.837505 0.000000 -45.248230
v 16.837505 2.396288 -46.448231
v 17.390482 2.023259 -36.448231
v 7.521248 0.000000 -46.448231
v -2.414511 0.000000 -46.448231
v 7.521248 0.000000 -39.848232
v 7.521248 0.000000 -41.848232
v 7.521248 2.396288 -41.848232
v 7.521248 2.396288 -39.848232
v 10.467506 0.000000 -41.848232
v 10.467506 0.000000 -39.848232
v 26.467506 0.000000 -41.848232
v 26.467506 0.000000 -39.848232
v 10.467506 3.756751 -41.848232
v 10.467506 3.756751 -39.848232
v 26.467506 3.756751 -41.848232
v 26.467506 3.756751 -39.848232
v 26.467506 2.396288 -39.848232
v 26.467506 2.396288 -41.848232
v 10.467506 2.396288 -39.848232
v 10.467506 2.396288 -41.848232
v 20.167507 0.000000 -39.848232
v 20.167507 0.000000 -41.848232
v 20.167507 3.756751 -39.848232
v 20.167507 3.756751 -41.848232
v 16.837505 3.756751 -41.848232
v 16.837505 3.756751 -39.848232
v 16.837505 0.000000 -39.848232
v 16.837505 0.000000 -41.848232
v 7.521248 0.000000 -36.448231
v -2.015536 0.590234 -36.448231
v 7.521248 3.219799 -36.448231
v -2.015536 3.012083 -36.448231
v 7.521248 3.219799 -46.448231
v -2.414511 3.219799 -46.448231
v -2.414510 0.000000 -38.806767
v 7.521248 0.000000 -38.806767
v 7.521248 3.219799 -38.806767
v -2.414510 3.219799 -38.806767
v 7.521248 0.000000 -42.897545
v -2.414510 0.000000 -42.897545
v 7.521248 3.219799 -42.897545
v -2.414510 3.219799 -42.897545
v 5.631909 0.590234 -36.448231
v 6.030884 0.000000 -46.448231
v 6.624176 0.000000 -41.848232
v 6.624176 0.000000 -39.848232
v 5.631909 3.012083 -36.448231
v 6.030884 3.219799 -46.448231
v 6.030884 3.219799 -38.806767
v 6.030884 0.000000 -38.806767
v 6.030884 3.219799 -42.897545
v 6.030884 0.000000 -42.897545
v 20.167507 0.000000 -36.448231
v 20.167507 2.396288 -36.448231
v 16.837505 0.000000 -36.448231
v 16.837505 2.396288 -36.448231
v 6.030884 0.000000 -36.148232
v -2.414511 0.000000 -36.148232
v 6.030884 3.219799 -36.148232
v -2.414511 3.219799 -36.148232
v 6.030884 0.000000 -36.448231
v -2.414511 0.000000 -36.448231
v 6.030884 3.219799 -36.448231
v -2.414511 3.219799 -36.448231
v 19.467506 0.000000 -50.208805
v 17.467506 0.000000 -50.208805
v 19.467506 1.796288 -50.208805
v 17.467506 1.796288 -50.208805
v 19.467506 0.000000 -50.834587
v 17.467506 0.000000 -50.834587
v 20.191101 2.411282 -50.208805
v 16.743912 2.411282 -50.208805
v 20.191101 0.000000 -50.208805
v 16.737272 0.000000 -50.207565
v 19.832272 -0.000092 -51.469185
v 17.095972 -0.000092 -51.468197
v 20.191101 2.411283 -51.110546
v 16.743914 2.411283 -51.110542
v 19.831999 -0.000477 -53.811626
v 17.095699 -0.000477 -53.810638
v 20.190699 2.410713 -54.170517
v 16.743511 2.410713 -54.170513
v 20.191101 0.000000 -51.110550
v 16.737272 0.000000 -51.109303
v 20.190699 -0.000569 -54.170521
v 16.736870 -0.000569 -54.169273
v 19.832272 -1.077774 -51.468727
v 17.095972 -1.077774 -51.467739
v 19.831999 -1.077774 -53.811169
v 17.095699 -1.077774 -53.810181
v 16.524237 -7.901931 -9.545897
v 14.297873 -7.901931 -9.545897
v 16.524237 -7.901931 -4.707548
v 14.297873 -7.901931 -4.707549
v 23.195681 -7.901931 -9.545897
v 20.312506 -7.901931 -9.545897
v 23.195681 -7.901931 -4.707549
v 20.312506 -7.901931 -4.707548
v 16.524237 -7.901931 -18.857573
v 20.312506 -7.901931 -18.857573
v 20.312506 -7.901931 4.120770
v 16.524237 -7.901931 4.120770
v 23.195681 -7.901931 -18.857573
v 23.195683 -7.901931 4.120770
v 14.297873 -7.901931 4.120770
v 14.297873 -7.901931 -18.857574
v 19.800175 -7.901931 -8.613661
v 19.800175 -7.901931 -5.639784
v 17.036568 -7.901931 -8.613661
v 17.036568 -7.901931 -5.639784
v 16.524237 -3.941985 -18.857573
v 20.312506 -3.941985 4.120770
v 23.195683 -3.941985 4.120770
v 23.195681 -3.941985 -4.707549
v 20.312506 -3.941985 -18.857573
v 14.523200 -3.716658 4.120770
v 16.298910 -3.716658 4.120770
v 23.195681 -3.941985 -9.545897
v 23.195681 -3.941985 -18.857573
v 14.297873 -3.941985 -18.857574
v 14.297873 -3.941985 -9.545897
v 14.297873 -3.941985 -4.707549
v 14.523200 -2.040675 10.976730
v 10.766039 1.892043 17.468426
v 16.298910 -2.040675 10.976730
v 17.367188 1.892043 17.468426
v 14.523200 -3.716658 10.976730
v 10.766039 -7.335031 17.468426
v 16.298910 -3.716658 10.976730
v 17.367188 -7.335031 17.468426
v 19.785797 -1.017090 -51.468529
v 19.146059 -0.823028 -51.468330
v 17.815449 -0.823028 -51.468132
v 17.175711 -1.017090 -51.467934
v 19.785797 -1.017090 -53.810970
v 19.146059 -0.823028 -53.810772
v 17.815449 -0.823028 -53.810574
v 17.175711 -1.017090 -53.810379
v 18.480755 -0.757501 -51.468231
v 18.480755 -0.757501 -53.810673
v 20.312506 -3.941985 -24.136944
v 18.480755 -7.577982 -54.586922
v 19.146059 -7.512455 -54.586922
v 19.785797 -7.318393 -54.586922
v 20.375381 -7.003253 -54.586922
v 20.892159 -6.579145 -54.586922
v 21.316265 -6.062370 -54.586922
v 21.631405 -5.472785 -54.586922
v 21.825468 -4.833046 -54.586922
v 20.312506 -1.815348 -24.136944
v 21.890995 -4.167742 -54.586922
v 21.825468 -3.502437 -54.586922
v 21.631405 -2.862699 -54.586922
v 21.316265 -2.273114 -54.586922
v 20.892159 -1.756337 -54.586922
v 19.899328 -1.077774 -54.047131
v 19.785797 -1.017090 -54.047131
v 19.146059 -0.823028 -54.047131
v 16.524237 -1.815348 -24.136944
v 18.480755 -0.757501 -54.047131
v 17.815449 -0.823028 -54.047131
v 17.175711 -1.017090 -54.047131
v 17.062180 -1.077774 -54.047131
v 16.069349 -1.756337 -54.586922
v 15.645243 -2.273114 -54.586922
v 15.330103 -2.862699 -54.586922
v 15.136041 -3.502437 -54.586922
v 15.070514 -4.167742 -54.586922
v 16.524237 -3.941985 -24.136944
v 15.136041 -4.833046 -54.586922
v 15.330103 -5.472785 -54.586922
v 15.645243 -6.062370 -54.586922
v 16.069349 -6.579145 -54.586922
v 16.586126 -7.003253 -54.586922
v 17.175711 -7.318393 -54.586922
v 17.815449 -7.512455 -54.586922
v 18.480755 -7.577982 -50.419258
v 19.146059 -7.512455 -50.419258
v 19.785797 -7.318393 -50.419258
v 20.375381 -7.003253 -50.419258
v 20.892159 -6.579146 -50.419258
v 21.316265 -6.062370 -50.419258
v 21.631405 -5.472784 -50.419258
v 21.825468 -4.833046 -50.419258
v 21.890995 -4.167742 -50.419258
v 21.825468 -3.502437 -50.419258
v 21.631405 -2.862699 -50.419258
v 21.316265 -2.273114 -50.419258
v 20.892159 -1.756338 -50.419258
v 19.899328 -1.077774 -50.959049
v 19.785797 -1.017091 -50.959049
v 19.146059 -0.823028 -50.959049
v 18.480755 -0.757501 -50.959049
v 17.815449 -0.823028 -50.959049
v 17.175711 -1.017090 -50.959049
v 17.062180 -1.077774 -50.959049
v 16.069349 -1.756338 -50.419258
v 15.645243 -2.273114 -50.419258
v 15.330103 -2.862699 -50.419258
v 15.136041 -3.502437 -50.419258
v 15.070514 -4.167742 -50.419258
v 15.136041 -4.833046 -50.419258
v 15.330103 -5.472784 -50.419258
v 15.645243 -6.062370 -50.419258
v 16.069349 -6.579146 -50.419258
v 16.586126 -7.003253 -50.419258
v 17.175711 -7.318393 -50.419258
v 17.815449 -7.512455 -50.419258
v 19.146059 -7.512455 -59.060432
v 18.480755 -7.577982 -59.060432
v 19.785797 -7.318393 -59.060432
v 20.375383 -7.003253 -59.060432
v 20.892159 -6.579146 -59.060432
v 21.316265 -6.062370 -59.060432
v 21.631407 -5.472785 -59.060432
v 21.825468 -4.833047 -59.060432
v 21.890995 -4.167742 -59.060432
v 21.825468 -3.502437 -59.060432
v 21.631407 -2.862700 -59.060432
v 21.316265 -2.273114 -59.060432
v 20.892159 -1.756338 -59.060432
v 20.375383 -1.332231 -59.060432
v 19.785797 -1.017091 -59.060432
v 19.146059 -0.823028 -59.060432
v 18.480755 -0.757501 -59.060432
v 17.815451 -0.823028 -59.060432
v 17.175713 -1.017091 -59.060432
v 16.586126 -1.332231 -59.060432
v 16.069351 -1.756338 -59.060432
v 15.645244 -2.273114 -59.060432
v 15.330104 -2.862700 -59.060432
v 15.136042 -3.502437 -59.060432
v 15.070515 -4.167742 -59.060432
v 15.136042 -4.833047 -59.060432
v 15.330104 -5.472785 -59.060432
v 15.645244 -6.062370 -59.060432
v 16.069351 -6.579146 -59.060432
v 16.586126 -7.003253 -59.060432
v 17.175713 -7.318393 -59.060432
v 17.815451 -7.512455 -59.060432
v 19.710966 -1.160885 -60.622536
v 19.636137 -1.417775 -61.587177
v 19.567825 -2.488569 -63.171574
v 20.280649 -1.444147 -60.577423
v 20.185915 -1.664729 -61.520985
v 20.097801 -2.682697 -63.068619
v 20.794336 -1.832328 -60.511879
v 20.696514 -2.011021 -61.422234
v 20.603060 -2.960324 -62.915035
v 21.231606 -2.315630 -60.424942
v 21.146944 -2.453584 -61.287773
v 21.063108 -3.323110 -62.705368
v 21.571987 -2.879725 -60.317131
v 21.512569 -2.983898 -61.117111
v 21.450716 -3.767732 -62.437843
v 21.796692 -3.505113 -60.191185
v 21.767914 -3.585943 -60.914001
v 21.735033 -4.283060 -62.117142
v 21.890995 -4.167244 -60.052315
v 21.890995 -4.235548 -60.686996
v 21.887243 -4.848708 -61.755947
v 21.846693 -4.837757 -59.907799
v 21.867916 -4.901914 -60.448692
v 21.887320 -5.436161 -61.374249
v 21.663679 -5.486750 -59.765915
v 21.695953 -5.551168 -60.213688
v 21.729076 -6.012645 -60.996021
v 21.350075 -6.085468 -59.634644
v 21.383884 -6.150730 -59.996086
v 21.421156 -6.546325 -60.644745
v 20.920925 -6.608574 -59.520622
v 20.949690 -6.672902 -59.807419
v 20.983824 -7.010643 -60.339596
v 20.396133 -7.035493 -59.428600
v 20.416885 -7.096670 -59.655670
v 20.443716 -7.386336 -60.093784
v 19.798431 -7.350801 -59.361511
v 19.811066 -7.407716 -59.545471
v 19.828997 -7.661145 -59.914974
v 19.151833 -7.543999 -59.320862
v 19.157604 -7.597322 -59.478928
v 19.166470 -7.828196 -59.806789
v 18.480755 -7.609053 -59.307262
v 18.480755 -7.660980 -59.456703
v 18.480755 -7.884199 -59.770630
v 17.809679 -7.543999 -59.320862
v 17.803905 -7.597322 -59.478928
v 17.795040 -7.828196 -59.806789
v 17.163078 -7.350801 -59.361511
v 17.150444 -7.407716 -59.545471
v 17.132513 -7.661145 -59.914974
v 16.565376 -7.035493 -59.428600
v 16.544624 -7.096670 -59.655670
v 16.517796 -7.386336 -60.093784
v 16.040585 -6.608574 -59.520622
v 16.011820 -6.672902 -59.807419
v 15.977686 -7.010643 -60.339596
v 15.611434 -6.085468 -59.634644
v 15.577624 -6.150730 -59.996086
v 15.540354 -6.546325 -60.644745
v 15.297830 -5.486750 -59.765915
v 15.265556 -5.551168 -60.213688
v 15.232432 -6.012645 -60.996021
v 15.114817 -4.837757 -59.907799
v 15.093593 -4.901914 -60.448692
v 15.074190 -5.436161 -61.374249
v 15.070515 -4.167244 -60.052315
v 15.070515 -4.235548 -60.686996
v 15.074266 -4.848708 -61.755947
v 15.164819 -3.505113 -60.191185
v 15.193597 -3.585943 -60.914001
v 15.226477 -4.283060 -62.117142
v 15.389523 -2.879725 -60.317131
v 15.448941 -2.983898 -61.117111
v 15.510794 -3.767732 -62.437843
v 15.729905 -2.315630 -60.424942
v 15.814566 -2.453584 -61.287773
v 15.898402 -3.323110 -62.705368
v 16.167173 -1.832328 -60.511879
v 16.264996 -2.011022 -61.422234
v 16.358450 -2.960324 -62.915035
v 16.680861 -1.444147 -60.577423
v 16.775595 -1.664729 -61.520985
v 16.863708 -2.682697 -63.068619
v 17.250544 -1.160885 -60.622536
v 17.325373 -1.417775 -61.587177
v 17.393684 -2.488569 -63.171574
v 17.856686 -0.988709 -60.648739
v 17.897923 -1.270214 -61.624783
v 17.935150 -2.374279 -63.230156
v 18.480755 -0.930965 -60.657310
v 18.480755 -1.221174 -61.636925
v 18.480755 -2.336598 -63.249100
v 19.104824 -0.988709 -60.648739
v 19.063587 -1.270214 -61.624783
v 19.026360 -2.374279 -63.230156
v 18.981358 -7.483269 -66.477501
v 18.934942 -5.558576 -65.878609
v 18.991957 -3.797356 -64.867226
v 18.480755 -7.477029 -66.509651
v 18.480755 -5.543217 -65.899429
v 18.480755 -3.769259 -64.892128
v 17.980152 -7.483269 -66.477501
v 18.026567 -5.558576 -65.878609
v 17.969553 -3.797356 -64.867226
v 17.477648 -7.503034 -66.378281
v 17.562660 -5.606073 -65.811981
v 17.457674 -3.882824 -64.790108
v 16.974726 -7.539371 -66.204178
v 17.084095 -5.689762 -65.687759
v 16.948107 -4.028847 -64.654099
v 16.479568 -7.596951 -65.943962
v 16.595266 -5.815602 -65.488693
v 16.450708 -4.239535 -64.449936
v 16.009918 -7.681194 -65.586166
v 16.113571 -5.990039 -65.196259
v 15.984368 -4.518150 -64.168602
v 15.594351 -7.796583 -65.124107
v 15.670994 -6.217572 -64.796890
v 15.577367 -4.864621 -63.805336
v 15.270166 -7.944202 -64.562119
v 15.311447 -6.497377 -64.289673
v 15.264776 -5.272638 -63.364159
v 15.076277 -8.119390 -63.920486
v 15.082038 -6.820215 -63.692436
v 15.082038 -5.727413 -62.861214
v 15.042562 -8.311255 -63.235466
v 15.019958 -7.167857 -63.042027
v 15.055984 -6.205762 -62.324539
v 15.180847 -8.504990 -62.552696
v 15.141224 -7.516366 -62.386757
v 15.197248 -6.679378 -61.789291
v 15.482700 -8.685863 -61.917152
v 15.437691 -7.841752 -61.774593
v 15.498174 -7.120080 -61.290363
v 15.924429 -8.842461 -61.364960
v 15.882988 -8.124770 -61.243473
v 15.936777 -7.504412 -60.856174
v 16.475122 -8.967747 -60.920345
v 16.442451 -8.352739 -60.817684
v 16.483715 -7.815698 -60.506058
v 17.103304 -9.058310 -60.596970
v 17.081432 -8.518666 -60.509605
v 17.108458 -8.043575 -60.251087
v 17.780313 -9.112872 -60.401310
v 17.769491 -8.619186 -60.324009
v 17.782658 -8.182230 -60.096645
v 18.480755 -9.131081 -60.335884
v 18.480755 -8.652834 -60.262093
v 18.480755 -8.228748 -60.044968
v 19.181196 -9.112872 -60.401310
v 19.192019 -8.619186 -60.324009
v 19.178852 -8.182230 -60.096645
v 19.858206 -9.058310 -60.596970
v 19.880077 -8.518666 -60.509605
v 19.853052 -8.043575 -60.251087
v 20.486387 -8.967747 -60.920345
v 20.519058 -8.352739 -60.817684
v 20.477795 -7.815698 -60.506058
v 21.037081 -8.842461 -61.364960
v 21.078522 -8.124770 -61.243473
v 21.024733 -7.504412 -60.856174
v 21.478809 -8.685863 -61.917152
v 21.523819 -7.841753 -61.774593
v 21.463337 -7.120080 -61.290363
v 21.780663 -8.504990 -62.552696
v 21.820286 -7.516366 -62.386757
v 21.764261 -6.679378 -61.789291
v 21.918947 -8.311255 -63.235466
v 21.941553 -7.167857 -63.042027
v 21.905527 -6.205762 -62.324539
v 21.885233 -8.119390 -63.920486
v 21.879471 -6.820215 -63.692436
v 21.879471 -5.727413 -62.861214
v 21.691343 -7.944202 -64.562119
v 21.650063 -6.497377 -64.289673
v 21.696733 -5.272638 -63.364159
v 21.367159 -7.796583 -65.124107
v 21.290516 -6.217572 -64.796890
v 21.384142 -4.864621 -63.805336
v 20.951591 -7.681194 -65.586166
v 20.847939 -5.990039 -65.196259
v 20.977140 -4.518150 -64.168602
v 20.481939 -7.596952 -65.943962
v 20.366241 -5.815602 -65.488693
v 20.510799 -4.239535 -64.449936
v 19.986784 -7.539371 -66.204178
v 19.877415 -5.689761 -65.687759
v 20.013403 -4.028846 -64.654099
v 19.483862 -7.503034 -66.378281
v 19.398849 -5.606073 -65.811981
v 19.503836 -3.882824 -64.790108
v 18.981358 -10.743211 -66.477501
v 18.480755 -10.743211 -66.509651
v 17.980152 -10.743211 -66.477501
v 17.477648 -10.743211 -66.378281
v 16.974726 -10.743211 -66.204178
v 16.479568 -10.743211 -65.943962
v 16.009918 -10.743211 -65.586166
v 15.594351 -10.743211 -65.124107
v 15.270166 -10.743211 -64.562119
v 15.076277 -10.743211 -63.920486
v 15.042562 -10.743210 -63.235466
v 15.180847 -10.743210 -62.552696
v 15.482700 -10.743210 -61.917152
v 15.924429 -10.743210 -61.364960
v 16.475122 -10.743210 -60.920345
v 17.103304 -10.743210 -60.596970
v 17.780313 -10.743210 -60.401310
v 18.480755 -10.743210 -60.335884
v 19.181196 -10.743210 -60.401310
v 19.858206 -10.743210 -60.596970
v 20.486387 -10.743210 -60.920345
v 21.037081 -10.743210 -61.364960
v 21.478809 -10.743210 -61.917152
v 21.780663 -10.743210 -62.552696
v 21.918947 -10.743210 -63.235466
v 21.885233 -10.743211 -63.920486
v 21.691343 -10.743211 -64.562119
v 21.367159 -10.743211 -65.124107
v 20.951591 -10.743211 -65.586166
v 20.481939 -10.743211 -65.943962
v 19.986784 -10.743211 -66.204178
v 19.483862 -10.743211 -66.378281
v 19.785797 -1.017090 -54.586922
v 20.375381 -1.332230 -54.586922
v 19.146059 -0.823028 -54.586922
v 18.480755 -0.757501 -54.586922
v 17.815449 -0.823028 -54.586922
v 17.175711 -1.017090 -54.586922
v 16.586126 -1.332230 -54.586922
v 20.375381 -1.332231 -50.419258
v 16.586126 -1.332231 -50.419258
v 17.175711 -1.017090 -50.419258
v 17.815449 -0.823028 -50.419258
v 18.480755 -0.757501 -50.419258
v 19.146059 -0.823028 -50.419258
v 19.785797 -1.017090 -50.419258
v 18.480755 -7.577982 -24.136944
v 19.146059 -7.512455 -24.136944
v 19.785797 -7.318393 -24.136944
v 20.375381 -7.003253 -24.136944
v 20.892159 -6.579145 -24.136944
v 21.316265 -6.062369 -24.136944
v 21.631405 -5.472784 -24.136944
v 21.825468 -4.833046 -24.136944
v 21.890995 -4.167741 -24.136944
v 21.825468 -3.502437 -24.136944
v 21.631405 -2.862699 -24.136944
v 21.316265 -2.273113 -24.136944
v 20.892159 -1.756337 -24.136944
v 20.375381 -1.332230 -24.136944
v 19.785797 -1.017090 -24.136944
v 19.146059 -0.823028 -24.136944
v 18.480755 -0.757501 -24.136944
v 17.815449 -0.823028 -24.136944
v 17.175711 -1.017090 -24.136944
v 16.586126 -1.332230 -24.136944
v 16.069349 -1.756337 -24.136944
v 15.645243 -2.273113 -24.136944
v 15.330103 -2.862699 -24.136944
v 15.136041 -3.502437 -24.136944
v 15.070514 -4.167741 -24.136944
v 15.136041 -4.833046 -24.136944
v 15.330103 -5.472784 -24.136944
v 15.645243 -6.062369 -24.136944
v 16.069349 -6.579145 -24.136944
v 16.586126 -7.003253 -24.136944
v 17.175711 -7.318393 -24.136944
v 17.815449 -7.512455 -24.136944
v 0.869297 0.000000 -4.899376
v 0.869297 1.796288 -4.899376
v -0.869297 -0.000000 -4.899376
v -0.869297 1.796288 -4.899376
v 10.766039 1.892043 10.976730
v 17.367188 1.892043 10.976730
v 10.766039 -7.335031 10.976730
v 17.367188 -7.335031 10.976730
v 14.297873 -3.941985 4.120770
v 14.297873 -1.815348 4.120770
v 16.524237 -1.815348 4.120770
v 16.524237 -3.941985 4.120770
v 10.766039 -15.624379 10.976730
v 10.766039 -15.624379 17.468426
v 17.367188 -15.624379 10.976730
v 17.367188 -15.624379 17.468426
vn -1.0000 -0.0000 -0.0000
vn -0.0000 1.0000 -0.0000
vn 1.0000 -0.0000 -0.0000
vn -0.0000 -0.0000 -1.0000
vn 0.0006 -0.0000 1.0000
vn -0.0000 -1.0000 -0.0000
vn -0.0000 -0.0000 1.0000
vn -0.0010 -0.0003 -1.0000
vn 1.0000 -0.0028 -0.0000
vn 1.0000 -0.0028 -0.0001
vn 0.0002 0.0003 1.0000
vn -1.0000 -0.0000 0.0001
vn 1.0000 -0.0000 -0.0001
vn -0.0000 -1.0000 0.0002
vn -0.0000 1.0000 -0.0003
vn -0.0000 1.0000 -0.0002
vn -0.0001 -0.0002 -1.0000
vn 0.0002 0.0008 1.0000
vn -0.0980 0.9952 -0.0000
vn -0.2903 0.9569 -0.0000
vn -0.4714 0.8819 -0.0000
vn -0.6344 0.7730 -0.0000
vn -0.7730 0.6344 -0.0000
vn -0.8819 0.4714 -0.0000
vn -0.9569 0.2903 -0.0000
vn -0.9952 0.0980 -0.0000
vn -0.9952 -0.0980 -0.0000
vn -0.9569 -0.2903 -0.0000
vn -0.8819 -0.4714 -0.0000
vn -0.7730 -0.6344 -0.0000
vn -0.6344 -0.7730 -0.0000
vn 0.6344 -0.7730 -0.0000
vn 0.7730 -0.6344 -0.0000
vn 0.8819 -0.4714 -0.0000
vn 0.9569 -0.2903 -0.0000
vn 0.9952 -0.0980 -0.0000
vn 0.9952 0.0980 -0.0000
vn 0.9569 0.2903 -0.0000
vn 0.8819 0.4714 -0.0000
vn 0.7730 0.6344 -0.0000
vn 0.6344 0.7730 -0.0000
vn 0.4714 0.8819 -0.0000
vn 0.2903 0.9569 -0.0000
vn 0.0980 0.9952 -0.0000
vn 0.4714 -0.8819 -0.0000
vn 0.2903 -0.9569 -0.0000
vn 0.0980 -0.9952 -0.0000
vn -0.0980 -0.9952 -0.0000
vn -0.2903 -0.9569 -0.0000
vn -0.4714 -0.8819 -0.0000
vn -0.4345 -0.8639 0.2548
vn -0.4595 -0.8827 0.0986
vn -0.0596 -0.2991 0.9523
vn -0.3911 -0.7565 0.5241
vn -0.5152 -0.6412 0.5687
vn -0.6201 -0.7794 0.0896
vn -0.5913 -0.7736 0.2280
vn -0.5427 -0.6900 0.4789
vn -0.6561 -0.5624 0.5032
vn -0.7588 -0.6469 0.0764
vn -0.7309 -0.6548 0.1922
vn -0.6857 -0.5977 0.4153
vn -0.7859 -0.4592 0.4141
vn -0.8703 -0.4890 0.0589
vn -0.8478 -0.5094 0.1476
vn -0.8127 -0.4786 0.3322
vn -0.8947 -0.3309 0.3000
vn -0.9498 -0.3106 0.0377
vn -0.9355 -0.3403 0.0955
vn -0.9142 -0.3337 0.2301
vn -0.9700 -0.1807 0.1626
vn -0.9929 -0.1181 0.0136
vn -0.9875 -0.1531 0.0378
vn -0.9794 -0.1675 0.1124
vn -0.9998 -0.0171 0.0086
vn -0.9967 0.0807 -0.0117
vn -0.9988 0.0438 -0.0230
vn -0.9998 0.0113 -0.0143
vn -0.9775 0.1472 -0.1512
vn -0.9602 0.2769 -0.0364
vn -0.9671 0.2402 -0.0836
vn -0.9714 0.1910 -0.1412
vn -0.9042 0.2982 -0.3057
vn -0.8850 0.4618 -0.0591
vn -0.8938 0.4256 -0.1412
vn -0.8961 0.3599 -0.2597
vn -0.7879 0.4245 -0.4462
vn -0.7749 0.6272 -0.0787
vn -0.7832 0.5908 -0.1937
vn -0.7810 0.5083 -0.3629
vn -0.6391 0.5191 -0.5675
vn -0.6349 0.7667 -0.0950
vn -0.6414 0.7287 -0.2398
vn -0.6350 0.6299 -0.4472
vn -0.4685 0.5804 -0.6660
vn -0.4710 0.8755 -0.1081
vn -0.4754 0.8346 -0.2784
vn -0.4673 0.7214 -0.5110
vn -0.2849 0.6126 -0.7373
vn -0.2897 0.9499 -0.1177
vn -0.2920 0.9056 -0.3076
vn -0.2855 0.7820 -0.5541
vn -0.0955 0.6244 -0.7752
vn -0.0977 0.9876 -0.1230
vn -0.0985 0.9409 -0.3239
vn -0.0960 0.8119 -0.5758
vn 0.0955 0.6244 -0.7752
vn 0.0977 0.9876 -0.1230
vn 0.0985 0.9409 -0.3239
vn 0.0960 0.8119 -0.5758
vn 0.2849 0.6126 -0.7373
vn 0.2897 0.9499 -0.1177
vn 0.2920 0.9056 -0.3076
vn 0.2855 0.7820 -0.5540
vn 0.4685 0.5804 -0.6660
vn 0.4710 0.8755 -0.1081
vn 0.4754 0.8346 -0.2784
vn 0.4673 0.7214 -0.5110
vn 0.6391 0.5191 -0.5675
vn 0.6349 0.7667 -0.0950
vn 0.6414 0.7287 -0.2398
vn 0.6350 0.6299 -0.4472
vn 0.7879 0.4245 -0.4462
vn 0.7749 0.6272 -0.0787
vn 0.7832 0.5908 -0.1937
vn 0.7810 0.5083 -0.3629
vn 0.9042 0.2982 -0.3057
vn 0.8850 0.4618 -0.0591
vn 0.8938 0.4256 -0.1412
vn 0.8961 0.3599 -0.2597
vn 0.9775 0.1472 -0.1512
vn 0.9602 0.2769 -0.0364
vn 0.9671 0.2402 -0.0836
vn 0.9714 0.1910 -0.1412
vn 0.9998 -0.0171 0.0086
vn 0.9967 0.0807 -0.0117
vn 0.9988 0.0438 -0.0230
vn 0.9998 0.0113 -0.0143
vn 0.9700 -0.1807 0.1626
vn 0.9929 -0.1181 0.0136
vn 0.9875 -0.1531 0.0378
vn 0.9794 -0.1675 0.1124
vn 0.8947 -0.3309 0.3000
vn 0.9498 -0.3106 0.0376
vn 0.9355 -0.3403 0.0955
vn 0.9142 -0.3337 0.2301
vn 0.7859 -0.4592 0.4141
vn 0.8703 -0.4890 0.0589
vn 0.8478 -0.5094 0.1476
vn 0.8127 -0.4786 0.3322
vn 0.6561 -0.5624 0.5032
vn 0.7588 -0.6469 0.0764
vn 0.7309 -0.6548 0.1922
vn 0.6857 -0.5977 0.4153
vn 0.5152 -0.6412 0.5687
vn 0.6201 -0.7794 0.0896
vn 0.5913 -0.7736 0.2280
vn 0.5427 -0.6900 0.4789
vn 0.3694 -0.6977 0.6138
vn 0.4595 -0.8827 0.0986
vn 0.4345 -0.8639 0.2548
vn 0.3911 -0.7565 0.5241
vn 0.2219 -0.7340 0.6419
vn 0.2825 -0.9536 0.1041
vn 0.2656 -0.9248 0.2724
vn 0.2356 -0.7993 0.5528
vn 0.0740 -0.7518 0.6553
vn 0.0953 -0.9897 0.1066
vn 0.0894 -0.9555 0.2812
vn 0.0786 -0.8202 0.5667
vn -0.0740 -0.7518 0.6553
vn -0.0953 -0.9897 0.1066
vn -0.0894 -0.9555 0.2812
vn -0.0786 -0.8202 0.5667
vn -0.2219 -0.7340 0.6419
vn -0.2825 -0.9536 0.1041
vn -0.2656 -0.9248 0.2724
vn -0.2356 -0.7993 0.5528
vn -0.0633 -0.4941 0.8671
vn 0.0633 -0.4941 0.8671
vn 0.0596 -0.2991 0.9523
vn 0.1919 -0.4879 0.8515
vn 0.1815 -0.2925 0.9389
vn 0.3256 -0.4738 0.8182
vn 0.3103 -0.2787 0.9088
vn 0.4651 -0.4484 0.7633
vn 0.4477 -0.2570 0.8565
vn 0.6074 -0.4077 0.6818
vn 0.5908 -0.2258 0.7746
vn 0.7454 -0.3477 0.5687
vn 0.7320 -0.1842 0.6559
vn 0.8669 -0.2662 0.4214
vn 0.8582 -0.1318 0.4961
vn 0.9562 -0.1643 0.2421
vn 0.9523 -0.0705 0.2970
vn 0.9980 -0.0481 0.0406
vn 0.9976 -0.0051 0.0695
vn 0.9833 0.0719 -0.1672
vn 0.9842 0.0570 -0.1678
vn 0.9130 0.1843 -0.3639
vn 0.9128 0.1084 -0.3937
vn 0.7966 0.2801 -0.5358
vn 0.7935 0.1439 -0.5913
vn 0.6465 0.3548 -0.6754
vn 0.6403 0.1619 -0.7509
vn 0.4746 0.4075 -0.7802
vn 0.4665 0.1650 -0.8690
vn 0.2894 0.4401 -0.8500
vn 0.2823 0.1597 -0.9459
vn 0.0972 0.4554 -0.8850
vn 0.0944 0.1540 -0.9836
vn -0.0972 0.4554 -0.8850
vn -0.0944 0.1539 -0.9836
vn -0.2894 0.4401 -0.8500
vn -0.2823 0.1597 -0.9459
vn -0.4746 0.4075 -0.7802
vn -0.4665 0.1650 -0.8690
vn -0.6465 0.3547 -0.6754
vn -0.6403 0.1619 -0.7509
vn -0.7966 0.2801 -0.5357
vn -0.7935 0.1439 -0.5913
vn -0.9130 0.1843 -0.3639
vn -0.9128 0.1084 -0.3937
vn -0.9833 0.0719 -0.1672
vn -0.9842 0.0570 -0.1678
vn -0.9980 -0.0481 0.0406
vn -0.9976 -0.0051 0.0695
vn -0.9562 -0.1643 0.2421
vn -0.9523 -0.0705 0.2970
vn -0.8669 -0.2662 0.4214
vn -0.8582 -0.1318 0.4961
vn -0.7454 -0.3477 0.5687
vn -0.7320 -0.1842 0.6559
vn -0.6074 -0.4077 0.6818
vn -0.5908 -0.2258 0.7746
vn -0.4651 -0.4484 0.7633
vn -0.4477 -0.2570 0.8565
vn -0.3256 -0.4738 0.8182
vn -0.3103 -0.2787 0.9088
vn -0.1919 -0.4879 0.8515
vn -0.1815 -0.2925 0.9389
vn -0.3271 -0.0000 0.9450
vn -0.9572 -0.0000 0.2893
vn -0.6282 -0.0000 -0.7781
vn 0.2776 -0.0000 -0.9607
vn 0.9801 -0.0000 -0.1985
vn 0.6060 -0.0000 0.7955
vn -0.7435 -0.0000 0.6687
vn -0.9033 -0.0000 -0.4290
vn -0.0930 -0.0000 -0.9957
vn 0.7809 -0.0000 -0.6247
vn 0.8662 -0.0000 0.4997
vn 0.1937 -0.0000 0.9811
vn -0.4652 -0.0000 0.8852
vn -0.9988 -0.0000 0.0492
vn -0.4577 -0.0000 -0.8891
vn 0.4577 -0.0000 -0.8891
vn 0.9988 -0.0000 0.0492
vn 0.4652 -0.0000 0.8852
vn -0.1937 -0.0000 0.9811
vn -0.8662 -0.0000 0.4997
vn -0.7809 -0.0000 -0.6247
vn 0.0930 -0.0000 -0.9957
vn 0.9033 -0.0000 -0.4290
vn 0.7435 -0.0000 0.6687
vn 0.0641 -0.0000 0.9979
vn -0.0641 -0.0000 0.9979
vn -0.6060 -0.0000 0.7955
vn -0.9801 -0.0000 -0.1985
vn -0.2776 -0.0000 -0.9607
vn 0.6282 -0.0000 -0.7781
vn 0.9572 -0.0000 0.2893
vn 0.3271 -0.0000 0.9450
vn 0.5309 -0.8466 -0.0376
vn 0.5317 -0.8467 0.0177
vn -0.6038 -0.7961 0.0397
vn -0.6028 -0.7932 -0.0860
vn -0.0048 -0.0004 -1.0000
vn -0.0005 -0.0006 -1.0000
vn -0.0021 -0.0004 -1.0000
vn -0.0002 -0.0003 -1.0000
vn -0.0004 -0.0006 -1.0000
vn -0.0002 -0.0008 -1.0000
vn 0.0022 0.0004 1.0000
vn 0.0049 0.0004 1.0000
vn 0.0005 0.0006 1.0000
vn 0.0004 0.0006 1.0000
vn 0.0001 0.0002 1.0000
vn -0.3694 -0.6977 0.6138
vt 0.731596 0.423878
vt 0.731596 0.432827
vt 0.720320 0.432827
vt 0.720320 0.423878
vt 0.711372 0.423878
vt 0.700499 0.412964
vt 0.720320 0.412964
vt 0.720320 0.393143
vt 0.731596 0.393143
vt 0.731596 0.412964
vt 0.240099 0.180568
vt 0.256361 0.180568
vt 0.256361 0.189874
vt 0.245085 0.189874
vt 0.731596 0.496219
vt 0.720320 0.496219
vt 0.720320 0.318837
vt 0.731596 0.318837
vt 0.751459 0.487271
vt 0.740545 0.487271
vt 0.740545 0.423878
vt 0.751418 0.412964
vt 0.711372 0.487271
vt 0.700458 0.487271
vt 0.921926 0.471172
vt 0.921926 0.459896
vt 0.941243 0.459896
vt 0.941243 0.471172
vt 0.256361 0.285392
vt 0.240099 0.285392
vt 0.240099 0.210941
vt 0.256361 0.210941
vt 0.941243 0.440579
vt 0.952157 0.440579
vt 0.952157 0.459896
vt 0.494461 0.907772
vt 0.494461 0.896496
vt 0.523386 0.896496
vt 0.523386 0.907772
vt 0.494461 0.920327
vt 0.523386 0.920327
vt 0.625944 0.806152
vt 0.629635 0.801757
vt 0.633477 0.801757
vt 0.633477 0.806152
vt 0.952157 0.490489
vt 0.941243 0.490489
vt 0.952157 0.471172
vt 0.971474 0.459896
vt 0.971474 0.471172
vt 0.494461 0.883941
vt 0.523386 0.883941
vt 0.494461 0.931603
vt 0.523386 0.931603
vt 0.430424 0.320892
vt 0.433053 0.326196
vt 0.433053 0.338751
vt 0.430424 0.344673
vt 0.436483 0.326196
vt 0.436483 0.338751
vt 0.805461 0.215995
vt 0.805461 0.226098
vt 0.801698 0.229861
vt 0.801698 0.215995
vt 0.919510 0.850583
vt 0.910094 0.850583
vt 0.910094 0.810908
vt 0.919510 0.801491
vt 0.840646 0.025465
vt 0.850062 0.025465
vt 0.850062 0.074557
vt 0.840646 0.074557
vt 0.915475 0.025465
vt 0.924892 0.025465
vt 0.924892 0.074557
vt 0.915475 0.065141
vt 0.213697 0.344673
vt 0.213697 0.320892
vt 0.224682 0.331150
vt 0.224682 0.340566
vt 0.436483 0.320892
vt 0.245084 0.475073
vt 0.240099 0.484380
vt 0.240099 0.454007
vt 0.245084 0.464159
vt 0.213697 0.484380
vt 0.213697 0.454007
vt 0.240099 0.320892
vt 0.234099 0.331150
vt 0.234099 0.340566
vt 0.240099 0.344673
vt 0.256361 0.475073
vt 0.256361 0.484380
vt 0.814877 0.226098
vt 0.818639 0.229861
vt 0.245085 0.200788
vt 0.256361 0.200788
vt 0.891793 0.613225
vt 0.901209 0.613225
vt 0.901209 0.652900
vt 0.891793 0.652900
vt 0.256361 0.454007
vt 0.256361 0.464159
vt 0.213697 0.285392
vt 0.213697 0.210941
vt 0.814877 0.215995
vt 0.814877 0.206579
vt 0.818639 0.202817
vt 0.818639 0.215995
vt 0.805461 0.206579
vt 0.801698 0.202817
vt 0.302020 0.823351
vt 0.302020 0.832706
vt 0.287214 0.832706
vt 0.287214 0.823351
vt 0.904956 0.346435
vt 0.904956 0.361477
vt 0.886461 0.361477
vt 0.886461 0.346435
vt 0.673465 0.730217
vt 0.677420 0.733983
vt 0.677420 0.745259
vt 0.673465 0.745259
vt 0.633477 0.845700
vt 0.625944 0.845700
vt 0.625944 0.785247
vt 0.629635 0.789202
vt 0.625944 0.681688
vt 0.633477 0.681688
vt 0.633477 0.721676
vt 0.625944 0.721676
vt 0.509809 0.730217
vt 0.470260 0.730217
vt 0.470260 0.721676
vt 0.509809 0.721676
vt 0.694369 0.730216
vt 0.673465 0.721676
vt 0.694369 0.721676
vt 0.625944 0.612695
vt 0.633477 0.612695
vt 0.633477 0.621235
vt 0.625944 0.621235
vt 0.633477 0.730216
vt 0.213697 0.180568
vt 0.213697 0.105270
vt 0.240099 0.105270
vt 0.245085 0.064466
vt 0.240099 0.069771
vt 0.240099 0.045989
vt 0.245085 0.051911
vt 0.256361 0.105270
vt 0.330812 0.292008
vt 0.340965 0.289358
vt 0.351879 0.289358
vt 0.361185 0.292008
vt 0.340965 0.285392
vt 0.351879 0.285392
vt 0.436483 0.344673
vt 0.330812 0.285392
vt 0.361185 0.285392
vt 0.256361 0.045989
vt 0.256361 0.051911
vt 0.256361 0.064466
vt 0.256361 0.069771
vt 0.139245 0.344673
vt 0.139245 0.379555
vt 0.108872 0.379555
vt 0.108872 0.344673
vt 0.902177 0.734252
vt 0.902177 0.742566
vt 0.891793 0.742566
vt 0.891793 0.734252
vt 0.340965 0.379555
vt 0.330812 0.379555
vt 0.330812 0.369433
vt 0.340965 0.374059
vt 0.361185 0.379555
vt 0.351879 0.379555
vt 0.351879 0.374059
vt 0.361185 0.369433
vt 0.558042 0.318837
vt 0.581823 0.318837
vt 0.581823 0.330233
vt 0.558042 0.330233
vt 0.581823 0.562294
vt 0.558042 0.562294
vt 0.558042 0.550898
vt 0.581823 0.550898
vt 0.544066 0.318837
vt 0.544066 0.330233
vt 0.599922 0.562294
vt 0.599922 0.550898
vt 0.256361 0.344673
vt 0.264608 0.344673
vt 0.264608 0.369433
vt 0.256361 0.379555
vt 0.430424 0.292008
vt 0.436483 0.285392
vt 0.213697 0.069771
vt 0.213697 0.045989
vt 0.599923 0.318837
vt 0.599923 0.330233
vt 0.256361 0.320892
vt 0.240099 0.379555
vt 0.264608 0.292008
vt 0.264608 0.320892
vt 0.649527 0.423862
vt 0.649527 0.454235
vt 0.638131 0.454235
vt 0.638131 0.423862
vt 0.494461 0.512689
vt 0.494461 0.454235
vt 0.505857 0.454235
vt 0.505857 0.512689
vt 0.213697 0.011107
vt 0.240099 0.011107
vt 0.256361 0.011107
vt 0.256361 0.559677
vt 0.240099 0.559677
vt 0.213697 0.559677
vt 0.436483 0.379555
vt 0.430424 0.369433
vt 0.649527 0.512690
vt 0.638131 0.512690
vt 0.494461 0.423862
vt 0.494461 0.368442
vt 0.505857 0.368442
vt 0.505857 0.423862
vt 0.213697 0.379555
vt 0.139245 0.285392
vt 0.139245 0.320892
vt 0.108872 0.320892
vt 0.108872 0.285392
vt 0.033575 0.379555
vt 0.033575 0.344673
vt 0.033575 0.320891
vt 0.033575 0.285392
vt 0.633477 0.660784
vt 0.625944 0.660784
vt 0.633477 0.785247
vt 0.625944 0.745259
vt 0.633477 0.745259
vt 0.633477 0.597652
vt 0.625944 0.597652
vt 0.625944 0.730216
vt 0.509809 0.745259
vt 0.470260 0.745259
vt 0.689975 0.733983
vt 0.694369 0.745259
vt 0.689975 0.745259
vt 0.633477 0.789202
vt 0.733918 0.730216
vt 0.733918 0.745259
vt 0.733918 0.721676
vt 0.327700 0.823351
vt 0.327700 0.770334
vt 0.349990 0.770334
vt 0.349990 0.823351
vt 0.530713 0.730216
vt 0.570701 0.730217
vt 0.570701 0.745259
vt 0.530713 0.745259
vt 0.530713 0.721676
vt 0.327700 0.852919
vt 0.327700 0.832706
vt 0.349990 0.832706
vt 0.349990 0.852919
vt 0.570701 0.721676
vt 0.904956 0.318837
vt 0.904956 0.333880
vt 0.886461 0.333880
vt 0.886461 0.318837
vt 0.302020 0.862275
vt 0.302020 0.915291
vt 0.287214 0.915291
vt 0.287214 0.862275
vt 0.327700 0.862275
vt 0.349990 0.862275
vt 0.327700 0.915291
vt 0.327700 0.935504
vt 0.302020 0.935504
vt 0.592045 0.681688
vt 0.592045 0.660784
vt 0.604600 0.660784
vt 0.604600 0.681688
vt 0.904956 0.374033
vt 0.886461 0.374033
vt 0.604600 0.806152
vt 0.604600 0.845700
vt 0.592045 0.845700
vt 0.592045 0.806152
vt 0.604600 0.721676
vt 0.592045 0.721676
vt 0.604600 0.612695
vt 0.604600 0.621235
vt 0.592045 0.621235
vt 0.592045 0.612695
vt 0.592045 0.785247
vt 0.604600 0.785247
vt 0.592045 0.745259
vt 0.604600 0.745259
vt 0.592045 0.597652
vt 0.604600 0.597652
vt 0.592045 0.730216
vt 0.604600 0.730216
vt 0.570701 0.785247
vt 0.570701 0.806152
vt 0.570701 0.845700
vt 0.570701 0.612695
vt 0.570701 0.597652
vt 0.570701 0.681688
vt 0.570701 0.621235
vt 0.570701 0.660784
vt 0.321113 0.847749
vt 0.321113 0.832706
vt 0.302020 0.770334
vt 0.359345 0.832706
vt 0.359345 0.852919
vt 0.287214 0.935504
vt 0.302020 0.852919
vt 0.308558 0.847749
vt 0.308558 0.832707
vt 0.349990 0.915291
vt 0.349990 0.935504
vt 0.308558 0.827075
vt 0.287214 0.852919
vt 0.277858 0.852919
vt 0.277858 0.832706
vt 0.412362 0.832706
vt 0.412362 0.852919
vt 0.287214 0.770334
vt 0.321113 0.827075
vt 0.361185 0.302792
vt 0.330812 0.302792
vt 0.419640 0.344673
vt 0.419640 0.320892
vt 0.330812 0.358649
vt 0.361185 0.358649
vt 0.419640 0.302792
vt 0.275392 0.302792
vt 0.275392 0.358649
vt 0.275392 0.320892
vt 0.275392 0.344673
vt 0.419640 0.358649
vt 0.624781 0.423862
vt 0.624781 0.454235
vt 0.599923 0.454235
vt 0.599923 0.423862
vt 0.814263 0.849918
vt 0.814263 0.832569
vt 0.852472 0.832569
vt 0.852472 0.849918
vt 0.795595 0.849918
vt 0.795595 0.832569
vt 0.581823 0.343583
vt 0.599923 0.343583
vt 0.599923 0.368442
vt 0.581823 0.368442
vt 0.757386 0.849918
vt 0.757386 0.832569
vt 0.519207 0.423862
vt 0.519207 0.368442
vt 0.544066 0.368442
vt 0.544066 0.423862
vt 0.814263 0.888126
vt 0.795595 0.888126
vt 0.624781 0.368442
vt 0.599922 0.537548
vt 0.581823 0.537548
vt 0.581823 0.512690
vt 0.599922 0.512690
vt 0.649527 0.368442
vt 0.638131 0.368442
vt 0.544066 0.562294
vt 0.544066 0.550898
vt 0.513280 0.732558
vt 0.513280 0.740658
vt 0.527242 0.740658
vt 0.527242 0.732558
vt 0.895611 0.810908
vt 0.895611 0.801491
vt 0.901209 0.667383
vt 0.891793 0.667383
vt 0.900993 0.074557
vt 0.900993 0.065141
vt 0.850062 0.098456
vt 0.840646 0.098456
vt 0.818639 0.243039
vt 0.801698 0.243039
vt 0.787833 0.243039
vt 0.787833 0.229861
vt 0.818639 0.256905
vt 0.801698 0.256905
vt 0.832505 0.229861
vt 0.832505 0.243039
vt 0.806356 0.225203
vt 0.813982 0.225203
vt 0.813982 0.216890
vt 0.806356 0.216890
vt 0.645117 0.301237
vt 0.636804 0.301237
vt 0.620241 0.284674
vt 0.661680 0.284674
vt 0.902177 0.726626
vt 0.891793 0.726626
vt 0.902177 0.750192
vt 0.891793 0.750192
vt 0.902177 0.718313
vt 0.891793 0.718313
vt 0.159795 0.517258
vt 0.167328 0.517258
vt 0.167328 0.521652
vt 0.163487 0.521652
vt 0.071124 0.833936
vt 0.071124 0.819130
vt 0.080480 0.819130
vt 0.080480 0.833936
vt 0.901930 0.230414
vt 0.883435 0.230414
vt 0.883435 0.215372
vt 0.901930 0.215372
vt 0.207316 0.593193
vt 0.207316 0.578150
vt 0.211271 0.578150
vt 0.211271 0.589427
vt 0.159795 0.477709
vt 0.167328 0.477709
vt 0.159795 0.538162
vt 0.163487 0.534207
vt 0.159795 0.641722
vt 0.159795 0.601734
vt 0.167328 0.601734
vt 0.167328 0.641722
vt 0.043660 0.593193
vt 0.043660 0.601734
vt 0.004112 0.601734
vt 0.004112 0.593193
vt 0.228220 0.593193
vt 0.228220 0.601734
vt 0.207316 0.601734
vt 0.159795 0.710715
vt 0.159795 0.702175
vt 0.167328 0.702175
vt 0.167328 0.710715
vt 0.167328 0.593193
vt 0.167328 0.662626
vt 0.159795 0.662626
vt 0.167328 0.538162
vt 0.167328 0.578150
vt 0.159795 0.578150
vt 0.167328 0.725758
vt 0.159795 0.725758
vt 0.159795 0.593193
vt 0.004112 0.578150
vt 0.043660 0.578150
vt 0.223826 0.589427
vt 0.223826 0.578150
vt 0.228220 0.578150
vt 0.167328 0.534207
vt 0.267769 0.578150
vt 0.267769 0.593193
vt 0.267769 0.601734
vt 0.071124 0.859616
vt 0.071124 0.881905
vt 0.018108 0.881905
vt 0.018108 0.859616
vt 0.064564 0.593193
vt 0.064564 0.578150
vt 0.104552 0.578150
vt 0.104552 0.593193
vt 0.064564 0.601734
vt 0.100693 0.859616
vt 0.100693 0.881905
vt 0.080480 0.881905
vt 0.080480 0.859616
vt 0.104552 0.601734
vt 0.901930 0.258012
vt 0.883435 0.258012
vt 0.883435 0.242970
vt 0.901930 0.242970
vt 0.110048 0.833936
vt 0.110049 0.819130
vt 0.163065 0.819130
vt 0.163065 0.833936
vt 0.110049 0.859616
vt 0.110048 0.881905
vt 0.183277 0.833936
vt 0.183277 0.859616
vt 0.163065 0.859616
vt 0.125896 0.641722
vt 0.138451 0.641722
vt 0.138451 0.662626
vt 0.125896 0.662626
vt 0.883435 0.202817
vt 0.901930 0.202817
vt 0.138451 0.517258
vt 0.125896 0.517258
vt 0.125896 0.477709
vt 0.138451 0.477709
vt 0.125896 0.601734
vt 0.138451 0.601734
vt 0.138451 0.710715
vt 0.125896 0.710715
vt 0.125896 0.702174
vt 0.138451 0.702175
vt 0.138451 0.538162
vt 0.125896 0.538162
vt 0.138451 0.578150
vt 0.125896 0.578150
vt 0.138451 0.725758
vt 0.125896 0.725758
vt 0.125896 0.593193
vt 0.138451 0.593193
vt 0.104552 0.538162
vt 0.104552 0.517258
vt 0.104553 0.477709
vt 0.104552 0.725758
vt 0.104552 0.710715
vt 0.104552 0.641722
vt 0.104552 0.702175
vt 0.104552 0.662626
vt 0.080480 0.853029
vt 0.095523 0.853029
vt 0.018108 0.833936
vt 0.100693 0.891261
vt 0.080480 0.891261
vt 0.183277 0.819130
vt 0.100693 0.833936
vt 0.095523 0.840473
vt 0.080480 0.840473
vt 0.183277 0.881905
vt 0.163065 0.881905
vt 0.074849 0.840473
vt 0.080480 0.809774
vt 0.100693 0.809774
vt 0.100693 0.819130
vt 0.100693 0.944278
vt 0.080480 0.944278
vt 0.018108 0.819130
vt 0.074849 0.853029
vt 0.047131 0.590851
vt 0.047132 0.582751
vt 0.061093 0.582751
vt 0.061093 0.590851
vt 0.708436 0.928064
vt 0.706553 0.928064
vt 0.706553 0.919964
vt 0.708436 0.919964
vt 0.706553 0.906002
vt 0.708436 0.906002
vt 0.706553 0.897902
vt 0.708436 0.897902
vt 0.706553 0.883941
vt 0.708436 0.883940
vt 0.275354 0.836412
vt 0.227346 0.836412
vt 0.224842 0.832706
vt 0.227346 0.851615
vt 0.275354 0.851615
vt 0.224842 0.852919
vt 0.084185 0.759262
vt 0.084185 0.807269
vt 0.080480 0.756757
vt 0.099389 0.807269
vt 0.099389 0.759262
vt 0.100693 0.756757
vt 0.789716 0.136683
vt 0.789716 0.151886
vt 0.787833 0.151886
vt 0.787833 0.136683
vt 0.787833 0.073472
vt 0.787833 0.025465
vt 0.789716 0.025465
vt 0.789716 0.073472
vt 0.787833 0.088676
vt 0.789716 0.088676
vt 0.574316 0.919048
vt 0.574316 0.907772
vt 0.597923 0.907772
vt 0.597923 0.919048
vt 0.574316 0.895217
vt 0.574316 0.883941
vt 0.597923 0.883941
vt 0.597923 0.895217
vt 0.574316 0.931603
vt 0.597923 0.931603
vt 0.827042 0.457192
vt 0.839599 0.457204
vt 0.839596 0.461132
vt 0.827040 0.461121
vt 0.839612 0.445929
vt 0.827058 0.445914
vt 0.822521 0.442048
vt 0.844158 0.442074
vt 0.844141 0.457209
vt 0.822458 0.457183
vt 0.844136 0.462869
vt 0.822455 0.462842
vt 0.863307 0.497242
vt 0.863326 0.482105
vt 0.868987 0.482112
vt 0.868968 0.497249
vt 0.797588 0.497216
vt 0.797565 0.482079
vt 0.803226 0.482074
vt 0.803249 0.497211
vt 0.844077 0.516424
vt 0.844070 0.522085
vt 0.822430 0.522058
vt 0.822437 0.516397
vt 0.822435 0.482051
vt 0.822458 0.497188
vt 0.844117 0.482078
vt 0.844098 0.497215
vt 0.655623 0.916114
vt 0.655619 0.930819
vt 0.648854 0.930819
vt 0.648860 0.916114
vt 0.841882 0.465118
vt 0.824704 0.465097
vt 0.824690 0.479802
vt 0.841867 0.479823
vt 0.903003 0.134180
vt 0.902592 0.130004
vt 0.907758 0.125487
vt 0.655619 0.884232
vt 0.655623 0.898937
vt 0.648860 0.898937
vt 0.648854 0.884232
vt 0.650870 0.907420
vt 0.650459 0.903243
vt 0.544066 0.343583
vt 0.558042 0.343583
vt 0.558042 0.368442
vt 0.624781 0.512690
vt 0.519207 0.512690
vt 0.519207 0.454235
vt 0.544066 0.454235
vt 0.544066 0.512690
vt 0.558042 0.454235
vt 0.558042 0.423862
vt 0.581823 0.454235
vt 0.581823 0.423862
vt 0.558042 0.512689
vt 0.578607 0.448383
vt 0.578607 0.429714
vt 0.561258 0.448383
vt 0.561258 0.429714
vt 0.795595 0.794360
vt 0.814263 0.794360
vt 0.558042 0.537548
vt 0.544066 0.537548
vt 0.802389 0.379749
vt 0.802389 0.355968
vt 0.835530 0.355968
vt 0.835530 0.379749
vt 0.895611 0.901513
vt 0.938650 0.901513
vt 0.938650 0.912660
vt 0.895611 0.912660
vt 0.645117 0.308863
vt 0.661680 0.325426
vt 0.620241 0.024001
vt 0.661680 0.024001
vt 0.661680 0.081925
vt 0.620241 0.081925
vt 0.510281 0.174713
vt 0.510281 0.133961
vt 0.568204 0.133961
vt 0.568204 0.174713
vt 0.771641 0.133961
vt 0.771641 0.174713
vt 0.713717 0.174713
vt 0.713717 0.133961
vt 0.895611 0.934328
vt 0.938650 0.934328
vt 0.938650 0.944850
vt 0.895611 0.944850
vt 0.620241 0.133961
vt 0.620241 0.174713
vt 0.636804 0.308863
vt 0.620241 0.325426
vt 0.296596 0.659416
vt 0.300766 0.659416
vt 0.300760 0.685405
vt 0.296591 0.685403
vt 0.304936 0.659417
vt 0.304929 0.685406
vt 0.309106 0.659418
vt 0.309099 0.685406
vt 0.313276 0.659420
vt 0.313268 0.685407
vt 0.317447 0.659421
vt 0.317437 0.685408
vt 0.321617 0.659423
vt 0.321606 0.685408
vt 0.325787 0.659426
vt 0.325776 0.685408
vt 0.329957 0.659429
vt 0.329945 0.685407
vt 0.334126 0.659432
vt 0.334114 0.685405
vt 0.338296 0.659437
vt 0.338283 0.685403
vt 0.342465 0.659441
vt 0.342452 0.685399
vt 0.346633 0.659447
vt 0.346620 0.685393
vt 0.350802 0.659455
vt 0.350788 0.685386
vt 0.375878 0.659439
vt 0.380049 0.659436
vt 0.380052 0.685419
vt 0.375883 0.685415
vt 0.384220 0.659434
vt 0.384223 0.685422
vt 0.388391 0.659432
vt 0.388393 0.685425
vt 0.392562 0.659431
vt 0.392564 0.685427
vt 0.396734 0.659430
vt 0.396735 0.685429
vt 0.400906 0.659429
vt 0.400907 0.685430
vt 0.405077 0.659428
vt 0.405078 0.685431
vt 0.409249 0.659428
vt 0.409250 0.685432
vt 0.413421 0.659427
vt 0.413421 0.685432
vt 0.417593 0.659427
vt 0.417593 0.685432
vt 0.421764 0.659427
vt 0.421765 0.685433
vt 0.384209 0.713351
vt 0.380035 0.713351
vt 0.425936 0.659427
vt 0.425937 0.685433
vt 0.430108 0.659427
vt 0.430109 0.685433
vt 0.425932 0.495409
vt 0.430104 0.495409
vt 0.421760 0.495409
vt 0.417588 0.495409
vt 0.413416 0.495410
vt 0.409244 0.495410
vt 0.405072 0.495410
vt 0.400900 0.495410
vt 0.396728 0.495410
vt 0.392556 0.495410
vt 0.388384 0.495410
vt 0.384212 0.495410
vt 0.380040 0.495410
vt 0.375868 0.495410
vt 0.371696 0.495410
vt 0.371703 0.659438
vt 0.367524 0.495410
vt 0.367522 0.659432
vt 0.363352 0.495410
vt 0.363342 0.659434
vt 0.359180 0.495410
vt 0.359160 0.659444
vt 0.355008 0.495411
vt 0.354975 0.659458
vt 0.350836 0.495411
vt 0.346664 0.495411
vt 0.342492 0.495411
vt 0.338320 0.495411
vt 0.334148 0.495410
vt 0.329976 0.495410
vt 0.325804 0.495410
vt 0.321633 0.495410
vt 0.317461 0.495410
vt 0.313289 0.495410
vt 0.309117 0.495410
vt 0.304946 0.495409
vt 0.300774 0.495409
vt 0.296602 0.495409
vt 0.776750 0.691149
vt 0.782308 0.689841
vt 0.782957 0.693109
vt 0.777627 0.694893
vt 0.421764 0.713352
vt 0.417591 0.713352
vt 0.329935 0.713318
vt 0.325765 0.713315
vt 0.367527 0.685421
vt 0.367507 0.713350
vt 0.363330 0.713348
vt 0.363350 0.685420
vt 0.405074 0.713351
vt 0.400901 0.713351
vt 0.313257 0.713308
vt 0.309087 0.713307
vt 0.350797 0.713335
vt 0.346622 0.713331
vt 0.388383 0.713351
vt 0.425936 0.713352
vt 0.334106 0.713320
vt 0.371707 0.685415
vt 0.371684 0.713351
vt 0.409247 0.713352
vt 0.317426 0.713310
vt 0.354971 0.685389
vt 0.354974 0.713340
vt 0.392556 0.713351
vt 0.300749 0.713303
vt 0.296580 0.713301
vt 0.430108 0.713352
vt 0.338277 0.713323
vt 0.375860 0.713351
vt 0.413419 0.713352
vt 0.321595 0.713313
vt 0.359169 0.685411
vt 0.359152 0.713344
vt 0.396729 0.713351
vt 0.304918 0.713305
vt 0.342449 0.713327
vt 0.766660 0.693772
vt 0.768117 0.698427
vt 0.822118 0.684657
vt 0.812219 0.684627
vt 0.812121 0.682441
vt 0.822050 0.682097
vt 0.792340 0.688782
vt 0.792776 0.691730
vt 0.803449 0.693091
vt 0.793362 0.694815
vt 0.803108 0.690287
vt 0.778801 0.698666
vt 0.770014 0.702914
vt 0.783833 0.696488
vt 0.803863 0.696135
vt 0.794093 0.698083
vt 0.780266 0.702478
vt 0.772314 0.707211
vt 0.784941 0.700009
vt 0.804350 0.699462
vt 0.794976 0.701566
vt 0.782017 0.706340
vt 0.774974 0.711305
vt 0.786287 0.703699
vt 0.804912 0.703110
vt 0.796020 0.705292
vt 0.784046 0.710257
vt 0.777937 0.715194
vt 0.787879 0.707574
vt 0.805555 0.707110
vt 0.797232 0.709280
vt 0.786336 0.714232
vt 0.781131 0.718894
vt 0.789721 0.711641
vt 0.806286 0.711484
vt 0.798614 0.713549
vt 0.788857 0.718272
vt 0.784473 0.722449
vt 0.791804 0.715899
vt 0.807105 0.716240
vt 0.800153 0.718109
vt 0.791551 0.722389
vt 0.787865 0.725932
vt 0.794089 0.720336
vt 0.807993 0.721357
vt 0.801809 0.722954
vt 0.794323 0.726611
vt 0.791202 0.729447
vt 0.796498 0.724945
vt 0.808915 0.726774
vt 0.803505 0.728056
vt 0.797044 0.730982
vt 0.794368 0.733116
vt 0.798905 0.729720
vt 0.809785 0.732382
vt 0.805111 0.733377
vt 0.799557 0.735545
vt 0.797233 0.737050
vt 0.801150 0.734658
vt 0.810572 0.738074
vt 0.806522 0.738787
vt 0.801705 0.740307
vt 0.799656 0.741303
vt 0.803081 0.739725
vt 0.811214 0.743677
vt 0.807655 0.744168
vt 0.803387 0.745211
vt 0.801529 0.745850
vt 0.804605 0.744839
vt 0.811670 0.748957
vt 0.808509 0.749291
vt 0.804653 0.750075
vt 0.802894 0.750561
vt 0.805778 0.749797
vt 0.806982 0.621415
vt 0.803396 0.621171
vt 0.803894 0.616001
vt 0.807071 0.616116
vt 0.798204 0.615122
vt 0.799993 0.615486
vt 0.799067 0.620426
vt 0.797169 0.619916
vt 0.801135 0.615685
vt 0.800308 0.620713
vt 0.806728 0.627049
vt 0.802638 0.626618
vt 0.797728 0.625434
vt 0.795615 0.624582
vt 0.799141 0.625920
vt 0.806337 0.632781
vt 0.801605 0.632112
vt 0.795914 0.630333
vt 0.793492 0.628993
vt 0.797565 0.631108
vt 0.805856 0.638436
vt 0.800370 0.637531
vt 0.793724 0.635059
vt 0.790906 0.633115
vt 0.795667 0.636190
vt 0.805312 0.643904
vt 0.799032 0.642738
vt 0.791311 0.639607
vt 0.788001 0.636994
vt 0.793596 0.641119
vt 0.804779 0.649070
vt 0.797715 0.647686
vt 0.788837 0.644011
vt 0.784915 0.640732
vt 0.791512 0.645883
vt 0.804291 0.653871
vt 0.796495 0.652341
vt 0.786435 0.648304
vt 0.781772 0.644441
vt 0.789539 0.650468
vt 0.803865 0.658285
vt 0.795411 0.656696
vt 0.784200 0.652509
vt 0.778684 0.648218
vt 0.787755 0.654860
vt 0.803499 0.662320
vt 0.794478 0.660759
vt 0.782189 0.656634
vt 0.775753 0.652131
vt 0.786199 0.659045
vt 0.803191 0.665998
vt 0.793695 0.664547
vt 0.780437 0.660681
vt 0.773067 0.656215
vt 0.784878 0.663021
vt 0.802936 0.669351
vt 0.793054 0.668084
vt 0.778957 0.664655
vt 0.770696 0.660483
vt 0.783791 0.666795
vt 0.802733 0.672416
vt 0.792551 0.671395
vt 0.777758 0.668560
vt 0.768699 0.664929
vt 0.782929 0.670384
vt 0.802587 0.675238
vt 0.792180 0.674512
vt 0.776848 0.672404
vt 0.767117 0.669537
vt 0.782289 0.673816
vt 0.802489 0.677858
vt 0.791949 0.677484
vt 0.776232 0.676200
vt 0.765986 0.674281
vt 0.781867 0.677120
vt 0.802454 0.680351
vt 0.791847 0.680343
vt 0.775918 0.679960
vt 0.765331 0.679134
vt 0.781666 0.680334
vt 0.802491 0.682774
vt 0.791876 0.683142
vt 0.775914 0.683695
vt 0.765177 0.684066
vt 0.781690 0.683495
vt 0.802622 0.685194
vt 0.792041 0.685936
vt 0.776177 0.687420
vt 0.765672 0.688976
vt 0.781885 0.686649
vt 0.802829 0.687679
vt 0.812067 0.680253
vt 0.821941 0.679539
vt 0.812043 0.677981
vt 0.821775 0.676917
vt 0.812039 0.675542
vt 0.821549 0.674169
vt 0.812043 0.672869
vt 0.821264 0.671238
vt 0.812043 0.669906
vt 0.820921 0.668071
vt 0.812031 0.666606
vt 0.820524 0.664624
vt 0.812002 0.662935
vt 0.820074 0.660860
vt 0.811954 0.658866
vt 0.819571 0.656759
vt 0.811885 0.654386
vt 0.819002 0.652312
vt 0.811791 0.649494
vt 0.818356 0.647531
vt 0.811665 0.644225
vt 0.817633 0.642455
vt 0.811506 0.638649
vt 0.816858 0.637148
vt 0.811312 0.632884
vt 0.816077 0.631696
vt 0.811094 0.627067
vt 0.815341 0.626204
vt 0.810842 0.621376
vt 0.814666 0.620789
vt 0.810511 0.615983
vt 0.813997 0.615559
vt 0.815111 0.748852
vt 0.815069 0.743448
vt 0.818618 0.749033
vt 0.818924 0.743770
vt 0.814926 0.737753
vt 0.819222 0.738320
vt 0.814742 0.731935
vt 0.819577 0.732791
vt 0.814536 0.726170
vt 0.819979 0.727298
vt 0.814309 0.720597
vt 0.820385 0.721950
vt 0.814070 0.715332
vt 0.820755 0.716836
vt 0.813826 0.710446
vt 0.821069 0.712022
vt 0.813585 0.705971
vt 0.821329 0.707546
vt 0.813351 0.701909
vt 0.821548 0.703420
vt 0.813126 0.698245
vt 0.821736 0.699635
vt 0.812910 0.694952
vt 0.821894 0.696168
vt 0.812705 0.691995
vt 0.822017 0.692985
vt 0.812516 0.689329
vt 0.822099 0.690041
vt 0.812352 0.686896
vt 0.822134 0.687284
vt 0.840821 0.687826
vt 0.840681 0.691194
vt 0.838771 0.706859
vt 0.837897 0.711310
vt 0.833574 0.730367
vt 0.832584 0.735344
vt 0.826597 0.618279
vt 0.827675 0.623289
vt 0.833092 0.642703
vt 0.834514 0.647339
vt 0.838852 0.664432
vt 0.839506 0.668194
vt 0.840034 0.698558
vt 0.839485 0.702597
vt 0.835790 0.720634
vt 0.834663 0.725458
vt 0.831000 0.745449
vt 0.830333 0.750561
vt 0.830208 0.633146
vt 0.831634 0.637968
vt 0.837019 0.656238
vt 0.838026 0.660441
vt 0.840380 0.675084
vt 0.840644 0.678299
vt 0.840426 0.694760
vt 0.836888 0.715911
vt 0.831729 0.740376
vt 0.828876 0.628249
vt 0.835839 0.651859
vt 0.840008 0.671733
vt 0.840863 0.684601
vt 0.825579 0.613225
vt 0.840815 0.681448
vt 0.354173 0.681968
vt 0.354993 0.681984
vt 0.359189 0.682038
vt 0.363356 0.682052
vt 0.367522 0.682052
vt 0.371698 0.682034
vt 0.372508 0.682025
vt 0.354168 0.662853
vt 0.372506 0.662817
vt 0.371700 0.662814
vt 0.367520 0.662804
vt 0.363347 0.662805
vt 0.359174 0.662816
vt 0.354979 0.662846
vt 0.371672 0.680556
vt 0.372296 0.680548
vt 0.372296 0.665990
vt 0.371672 0.665987
vt 0.367514 0.665978
vt 0.363352 0.665978
vt 0.359194 0.665987
vt 0.355056 0.666023
vt 0.354583 0.666031
vt 0.354591 0.680498
vt 0.355062 0.680510
vt 0.359202 0.680565
vt 0.363358 0.680579
vt 0.367518 0.680578
vt 0.649235 0.883941
vt 0.907758 0.142664
vt 0.901374 0.142373
vt 0.902592 0.138357
vt 0.901374 0.125988
vt 0.900993 0.125487
vt 0.649241 0.915612
vt 0.650459 0.911596
vt 0.649241 0.899227
vt 0.787600 0.963326
vt 0.765107 0.956249
vt 0.764651 0.952077
vt 0.766369 0.960251
vt 0.768388 0.963931
vt 0.771086 0.967146
vt 0.774359 0.969772
vt 0.778081 0.971710
vt 0.782110 0.972885
vt 0.800949 0.963181
vt 0.786291 0.973250
vt 0.790463 0.972793
vt 0.794465 0.971531
vt 0.798144 0.969513
vt 0.801359 0.966815
vt 0.803986 0.963542
vt 0.805924 0.959820
vt 0.807098 0.955791
vt 0.800690 0.939401
vt 0.807464 0.951610
vt 0.807007 0.947438
vt 0.805745 0.943436
vt 0.803727 0.939756
vt 0.801029 0.936542
vt 0.797756 0.933915
vt 0.794033 0.931977
vt 0.790004 0.930803
vt 0.785824 0.930437
vt 0.787340 0.939547
vt 0.781652 0.930894
vt 0.777649 0.932156
vt 0.773970 0.934174
vt 0.770755 0.936872
vt 0.768128 0.940145
vt 0.766191 0.943867
vt 0.765016 0.947896
vt 0.802389 0.342618
vt 0.835530 0.342618
vt 0.802389 0.318837
vt 0.835530 0.318837
vt 0.802389 0.393099
vt 0.835530 0.393099
vt 0.643827 0.259986
vt 0.654974 0.259986
vt 0.654974 0.249465
vt 0.643827 0.249465
vt 0.620241 0.226750
vt 0.661680 0.226750
vt 0.545480 0.331647
vt 0.545480 0.342168
vt 0.556628 0.331647
vt 0.556628 0.342168
vt 0.938650 0.923181
vt 0.895611 0.923181
vt 0.661680 0.133961
vt 0.661680 0.174713
s 0
f 780/1/1 4/2/1 1/3/1 779/4/1
f 779/4/2 1/5/2 2/6/2 781/7/2
f 781/7/3 2/8/3 3/9/3 782/10/3
f 68/11/1 46/12/1 12/13/1 11/14/1
f 4/2/4 6/15/4 5/16/4 1/3/4
f 2/8/5 7/17/5 8/18/5 3/9/5
f 8/19/6 6/20/6 4/21/6 3/22/6
f 1/5/2 5/23/2 7/24/2 2/6/2
f 11/25/7 12/26/7 21/27/7 22/28/7
f 15/29/1 66/30/1 65/31/1 49/32/1
f 12/33/2 10/34/2 23/35/2 21/27/2
f 32/36/3 34/37/3 26/38/3 28/39/3
f 33/40/6 32/36/6 28/39/6 27/41/6
f 116/42/2 122/43/2 25/44/2 111/45/2
f 9/46/6 11/47/6 22/28/6 24/48/6
f 10/49/4 9/50/4 24/48/4 23/35/4
f 34/37/2 35/51/2 25/52/2 26/38/2
f 35/53/1 33/40/1 27/41/1 25/54/1
f 182/55/2 76/56/2 14/57/2 181/58/2
f 35/59/2 34/60/2 14/57/2 76/56/2
f 226/61/2 224/62/2 217/63/2 222/64/2
f 23/35/1 24/48/1 22/28/1 21/27/1
f 53/65/2 54/66/2 40/67/2 37/68/2
f 52/69/1 53/70/1 37/71/1 38/72/1
f 51/73/6 52/74/6 38/75/6 39/76/6
f 18/77/4 36/78/4 52/79/4 51/80/4
f 73/81/2 35/59/2 76/56/2 182/55/2
f 8/82/3 42/83/3 41/84/3 6/85/3
f 43/86/3 48/87/3 41/84/3 42/83/3
f 52/79/4 36/78/4 29/88/4 53/89/4
f 18/77/4 51/80/4 54/90/4 13/91/4
f 42/83/3 8/82/3 7/92/3 45/93/3
f 224/62/2 223/94/2 218/95/2 217/63/2
f 65/31/1 9/96/1 10/97/1 49/32/1
f 29/88/4 13/91/4 54/90/4 53/89/4
f 54/98/3 51/99/3 39/100/3 40/101/3
f 6/85/3 41/84/3 50/102/3 5/103/3
f 66/30/1 19/104/1 47/105/1 65/31/1
f 225/106/1 211/107/1 220/108/1 221/109/1
f 213/110/1 226/61/1 222/64/1 215/111/1
f 176/112/2 162/113/2 155/114/2 325/115/2
f 146/116/4 135/117/4 132/118/4 133/119/4
f 127/120/4 28/121/4 26/122/4 120/123/4
f 116/42/2 111/45/2 58/124/2 102/125/2
f 126/126/2 121/127/2 122/43/2 116/42/2
f 125/128/6 124/129/6 62/130/6 103/131/6
f 208/132/7 108/133/7 63/134/7 113/135/7
f 118/136/4 127/120/4 124/137/4 114/138/4
f 109/139/1 105/140/1 64/141/1 104/142/1
f 127/120/4 107/143/4 62/130/4 124/137/4
f 47/105/1 44/144/1 68/11/1 65/31/1
f 68/11/1 11/14/1 9/96/1 65/31/1
f 44/144/1 20/145/1 67/146/1 68/11/1
f 33/147/7 16/148/7 69/149/7 32/150/7
f 68/11/1 67/146/1 17/151/1 46/12/1
f 180/152/2 75/153/2 74/154/2 179/155/2
f 10/156/2 12/157/2 74/154/2 75/153/2
f 34/60/2 70/158/2 181/58/2 14/57/2
f 49/159/2 10/156/2 75/153/2 180/152/2
f 12/157/2 46/160/2 179/155/2 74/154/2
f 69/149/7 70/161/7 34/162/7 32/150/7
f 33/147/7 35/163/7 73/164/7 16/148/7
f 99/165/6 48/166/6 43/167/6 100/168/6
f 56/169/4 214/170/4 230/171/4 228/172/4
f 5/173/2 50/174/2 183/175/2 79/176/2
f 45/177/2 7/178/2 80/179/2 184/180/2
f 7/178/2 5/173/2 79/176/2 80/179/2
f 184/180/2 80/179/2 79/176/2 183/175/2
f 91/181/4 90/182/4 201/183/4 789/184/4
f 78/185/7 77/186/7 199/187/7 200/188/7
f 89/189/4 91/181/4 789/184/4 788/190/4
f 85/191/7 78/185/7 200/188/7 203/192/7
f 30/193/2 189/194/2 187/195/2 84/196/2
f 185/197/2 179/155/2 46/160/2 17/198/2
f 182/55/2 185/197/2 17/198/2 73/81/2
f 16/148/7 73/164/7 17/151/7 67/146/7
f 86/199/7 16/148/7 67/146/7 20/145/7
f 69/149/7 16/148/7 86/199/7 87/200/7
f 90/182/4 88/201/4 204/202/4 201/183/4
f 29/88/4 66/30/4 15/29/4 31/203/4
f 19/104/4 66/30/4 29/88/4 36/78/4
f 50/102/3 41/84/3 83/204/3 84/196/3
f 15/29/2 49/159/2 180/152/2 186/205/2
f 183/175/2 50/174/2 84/196/2 187/195/2
f 31/203/2 15/29/2 186/205/2 188/206/2
f 30/193/2 31/203/2 188/206/2 189/194/2
f 71/207/1 72/208/1 195/209/1 197/210/1
f 95/211/3 81/212/3 192/213/3 206/214/3
f 69/149/7 87/200/7 94/215/7 92/216/7
f 70/161/7 69/149/7 92/216/7 93/217/7
f 45/93/3 93/218/3 92/219/3 42/83/3
f 43/86/3 42/83/3 92/219/3 94/220/3
f 181/58/2 70/158/2 93/221/2 190/222/2
f 190/222/2 93/221/2 45/177/2 184/180/2
f 72/208/1 85/223/1 203/224/1 195/209/1
f 82/225/3 89/226/3 788/227/3 194/228/3
f 13/91/4 30/193/4 84/196/4 83/204/4
f 30/193/4 13/91/4 29/88/4 31/203/4
f 18/77/4 13/91/4 83/204/4 96/229/4
f 96/229/3 83/204/3 41/84/3 48/87/3
f 47/230/6 97/231/6 98/232/6 44/233/6
f 97/231/6 99/165/6 100/168/6 98/232/6
f 97/231/6 47/230/6 19/104/6 36/78/6
f 99/165/6 97/231/6 36/78/6 18/77/6
f 48/166/6 99/165/6 18/77/6 96/229/6
f 100/168/6 43/167/6 94/234/6 87/235/6
f 98/232/6 100/168/6 87/235/6 86/236/6
f 44/233/6 98/232/6 86/236/6 20/237/6
f 114/238/6 115/239/6 104/142/6 64/141/6
f 120/240/2 126/126/2 101/241/2 57/242/2
f 58/243/1 105/140/1 109/139/1 102/244/1
f 107/143/3 110/245/3 103/131/3 62/130/3
f 208/132/7 207/246/7 60/247/7 108/133/7
f 27/248/4 118/136/4 111/249/4 25/250/4
f 118/136/4 27/248/4 28/121/4 127/120/4
f 127/120/4 120/123/4 57/242/4 107/143/4
f 101/241/3 110/245/3 107/143/3 57/242/3
f 25/44/2 122/43/2 121/127/2 26/251/2
f 111/249/4 118/136/4 105/252/4 58/253/4
f 105/252/4 118/136/4 114/138/4 64/254/4
f 178/255/2 166/256/2 130/257/2 170/258/2
f 210/259/7 106/260/7 59/261/7 209/262/7
f 210/259/7 208/132/7 113/135/7 123/263/7
f 26/251/2 121/127/2 126/126/2 120/240/2
f 167/264/1 165/265/1 129/266/1 159/267/1
f 114/238/6 124/129/6 125/128/6 115/239/6
f 106/260/7 210/259/7 123/263/7 61/268/7
f 136/269/7 145/270/7 134/271/7 131/272/7
f 145/270/6 146/116/6 133/119/6 134/271/6
f 175/273/6 164/274/6 328/275/6 327/276/6
f 177/277/6 167/264/6 159/267/6 174/278/6
f 164/274/3 168/279/3 166/280/3 161/281/3
f 152/282/6 149/283/6 150/284/6 151/285/6
f 135/117/2 136/286/2 131/287/2 132/118/2
f 148/288/2 137/289/2 138/290/2 147/291/2
f 151/285/6 139/292/6 140/293/6 152/282/6
f 144/294/1 141/295/1 142/296/1 143/297/1
f 147/291/2 153/298/2 154/299/2 148/288/2
f 149/283/6 142/296/6 141/295/6 150/284/6
f 153/298/2 136/300/2 135/301/2 154/299/2
f 143/297/1 138/302/1 137/303/1 144/294/1
f 145/304/3 140/293/3 139/292/3 146/305/3
f 59/261/3 106/260/3 145/304/3 136/300/3
f 126/126/2 154/299/2 135/301/2 101/241/2
f 135/301/3 146/305/3 110/245/3 101/241/3
f 153/298/2 209/306/2 59/261/2 136/300/2
f 207/307/2 147/291/2 138/290/2 60/308/2
f 102/244/1 109/139/1 144/294/1 137/303/1
f 148/288/2 116/42/2 102/125/2 137/289/2
f 138/302/1 143/297/1 108/309/1 60/310/1
f 110/245/3 146/305/3 139/292/3 103/131/3
f 123/311/6 152/282/6 140/293/6 61/268/6
f 151/285/6 125/128/6 103/131/6 139/292/6
f 145/304/3 106/260/3 61/268/3 140/293/3
f 115/239/6 150/284/6 141/295/6 104/142/6
f 108/309/1 143/297/1 142/296/1 63/312/1
f 144/294/1 109/139/1 104/142/1 141/295/1
f 149/283/6 113/313/6 63/312/6 142/296/6
f 116/42/2 148/288/2 154/299/2 126/126/2
f 147/291/2 207/307/2 209/306/2 153/298/2
f 115/239/6 125/128/6 151/285/6 150/284/6
f 149/283/6 152/282/6 123/311/6 113/313/6
f 167/264/1 133/314/1 132/315/1 165/265/1
f 178/255/2 176/112/2 161/316/2 166/256/2
f 129/266/4 170/317/4 174/318/4 159/267/4
f 164/274/3 161/281/3 326/319/3 328/275/3
f 163/320/1 134/321/1 133/314/1 167/264/1
f 134/321/1 163/320/1 162/113/1 131/322/1
f 166/280/3 168/279/3 160/323/3 130/324/3
f 163/320/6 167/264/6 177/277/6 175/273/6
f 172/325/2 131/322/2 162/113/2 176/112/2
f 175/273/6 177/277/6 168/279/6 164/274/6
f 155/114/7 157/326/7 327/327/7 325/328/7
f 162/113/1 163/320/1 157/326/1 155/114/1
f 174/318/4 170/317/4 130/329/4 160/330/4
f 168/279/6 177/277/6 174/278/6 160/323/6
f 163/320/6 175/273/6 327/276/6 157/326/6
f 165/265/2 178/255/2 170/258/2 129/266/2
f 161/316/2 176/112/2 325/115/2 326/331/2
f 132/315/2 131/322/2 172/325/2 171/332/2
f 171/332/2 172/325/2 176/112/2 178/255/2
f 132/315/2 171/332/2 178/255/2 165/265/2
f 72/333/2 71/334/2 180/152/2 179/155/2
f 77/335/2 78/336/2 182/55/2 181/58/2
f 82/337/2 81/338/2 184/180/2 183/175/2
f 85/339/2 72/333/2 179/155/2 185/197/2
f 78/336/2 85/339/2 185/197/2 182/55/2
f 71/334/2 88/340/2 186/205/2 180/152/2
f 89/341/2 82/337/2 183/175/2 187/195/2
f 88/340/2 90/342/2 188/206/2 186/205/2
f 90/342/2 91/343/2 189/194/2 188/206/2
f 95/344/2 77/335/2 181/58/2 190/222/2
f 81/338/2 95/344/2 190/222/2 184/180/2
f 91/343/2 89/341/2 187/195/2 189/194/2
f 382/345/1 386/346/1 363/347/1 365/348/1
f 198/349/7 193/350/7 378/351/7 376/352/7
f 196/353/2 191/354/2 193/350/2 198/349/2
f 380/355/4 381/356/4 372/357/4 369/358/4
f 191/354/4 196/353/4 375/359/4 377/360/4
f 390/361/3 787/362/3 373/363/3 362/364/3
f 196/353/3 198/349/3 376/365/3 375/366/3
f 381/367/1 382/345/1 365/348/1 372/357/1
f 387/368/7 383/369/7 368/370/7 371/371/7
f 88/372/1 71/207/1 197/210/1 204/373/1
f 81/212/3 82/225/3 194/228/3 192/213/3
f 77/186/7 95/374/7 206/375/7 199/187/7
f 117/376/7 112/377/7 207/246/7 208/132/7
f 112/377/7 119/378/7 209/262/7 207/246/7
f 128/379/7 117/376/7 208/132/7 210/259/7
f 119/378/7 128/379/7 210/259/7 209/262/7
f 40/67/2 225/380/2 226/381/2 37/68/2
f 40/101/7 39/100/7 211/382/7 225/383/7
f 39/76/6 38/75/6 213/384/6 211/385/6
f 38/72/4 37/71/4 226/386/4 213/387/4
f 218/95/3 219/388/3 216/389/3 217/63/3
f 215/390/4 222/391/4 217/63/4 216/389/4
f 220/392/6 215/393/6 216/389/6 219/388/6
f 221/394/7 220/395/7 219/388/7 218/95/7
f 223/94/2 225/106/2 221/109/2 218/95/2
f 211/107/1 213/110/1 215/111/1 220/108/1
f 56/396/2 55/397/2 223/94/2 224/62/2
f 55/397/2 212/398/2 225/106/2 223/94/2
f 214/399/2 56/396/2 224/62/2 226/61/2
f 212/398/2 214/399/2 226/61/2 225/106/2
f 229/400/6 227/401/6 783/402/6 784/403/6
f 55/404/3 56/169/3 228/172/3 227/405/3
f 214/170/1 212/406/1 229/407/1 230/171/1
f 212/408/7 55/404/7 227/405/7 229/409/7
f 258/410/2 253/411/2 231/412/2 264/413/2
f 318/414/2 329/415/2 297/416/2 304/417/2
f 288/418/7 275/419/7 274/420/7 277/421/7
f 269/422/7 262/423/7 232/424/7 234/425/7
f 258/410/2 244/426/2 236/427/2 253/411/2
f 268/428/2 258/410/2 264/413/2 263/429/2
f 267/430/6 245/431/6 240/432/6 266/433/6
f 322/434/4 255/435/4 241/436/4 250/437/4
f 260/438/7 256/439/7 266/440/7 269/422/7
f 251/441/1 246/442/1 242/443/1 247/444/1
f 269/422/7 266/440/7 240/432/7 249/445/7
f 256/446/6 242/443/6 246/442/6 257/447/6
f 262/448/2 235/449/2 243/450/2 268/428/2
f 236/451/1 244/452/1 251/441/1 247/444/1
f 249/445/3 240/432/3 245/431/3 252/453/3
f 322/434/4 250/437/4 238/454/4 321/455/4
f 233/456/7 231/457/7 253/458/7 260/438/7
f 260/438/7 269/422/7 234/425/7 233/456/7
f 269/422/7 249/445/7 235/449/7 262/423/7
f 243/450/3 235/449/3 249/445/3 252/453/3
f 231/412/2 232/459/2 263/429/2 264/413/2
f 253/458/7 236/460/7 247/461/7 260/438/7
f 247/461/7 242/462/7 256/439/7 260/438/7
f 320/463/2 312/464/2 272/465/2 308/466/2
f 324/467/4 323/468/4 237/469/4 248/470/4
f 324/467/4 265/471/4 255/435/4 322/434/4
f 232/459/2 262/448/2 268/428/2 263/429/2
f 309/472/1 301/473/1 271/474/1 307/475/1
f 256/446/6 257/447/6 267/430/6 266/433/6
f 248/470/4 239/476/4 265/471/4 324/467/4
f 278/477/4 273/478/4 276/479/4 287/480/4
f 287/480/6 276/479/6 275/419/6 288/418/6
f 317/481/6 331/482/6 332/483/6 306/484/6
f 319/485/6 316/486/6 301/473/6 309/472/6
f 306/484/3 303/487/3 308/488/3 310/489/3
f 294/490/6 293/491/6 292/492/6 291/493/6
f 277/421/2 274/420/2 273/494/2 278/495/2
f 290/496/2 289/497/2 280/498/2 279/499/2
f 293/491/6 294/490/6 282/500/6 281/501/6
f 286/502/1 285/503/1 284/504/1 283/505/1
f 289/497/2 290/496/2 296/506/2 295/507/2
f 291/493/6 292/492/6 283/505/6 284/504/6
f 295/507/2 296/506/2 277/508/2 278/509/2
f 285/503/1 286/502/1 279/510/1 280/511/1
f 287/512/3 288/513/3 281/501/3 282/500/3
f 237/469/3 278/509/3 287/512/3 248/470/3
f 268/428/2 243/450/2 277/508/2 296/506/2
f 277/508/3 243/450/3 252/453/3 288/513/3
f 295/507/2 278/509/2 237/469/2 323/514/2
f 321/515/2 238/516/2 280/498/2 289/497/2
f 244/452/1 279/510/1 286/502/1 251/441/1
f 290/496/2 279/499/2 244/426/2 258/410/2
f 280/511/1 238/517/1 250/518/1 285/503/1
f 252/453/3 245/431/3 281/501/3 288/513/3
f 265/519/6 239/476/6 282/500/6 294/490/6
f 293/491/6 281/501/6 245/431/6 267/430/6
f 287/512/3 282/500/3 239/476/3 248/470/3
f 257/447/6 246/442/6 283/505/6 292/492/6
f 250/518/1 241/520/1 284/504/1 285/503/1
f 286/502/1 283/505/1 246/442/1 251/441/1
f 291/493/6 284/504/6 241/520/6 255/521/6
f 258/410/2 268/428/2 296/506/2 290/496/2
f 289/497/2 295/507/2 323/514/2 321/515/2
f 257/447/6 292/492/6 293/491/6 267/430/6
f 291/493/6 255/521/6 265/519/6 294/490/6
f 309/472/1 307/475/1 274/522/1 275/523/1
f 320/463/2 308/466/2 303/524/2 318/414/2
f 271/474/7 301/473/7 316/525/7 312/526/7
f 306/484/3 332/483/3 330/527/3 303/487/3
f 305/528/1 309/472/1 275/523/1 276/529/1
f 276/529/1 273/530/1 304/417/1 305/528/1
f 308/488/3 272/531/3 302/532/3 310/489/3
f 305/528/6 317/481/6 319/485/6 309/472/6
f 314/533/2 318/414/2 304/417/2 273/530/2
f 317/481/6 306/484/6 310/489/6 319/485/6
f 297/416/4 329/534/4 331/535/4 299/536/4
f 304/417/1 297/416/1 299/536/1 305/528/1
f 316/525/7 302/537/7 272/538/7 312/526/7
f 310/489/6 302/532/6 316/486/6 319/485/6
f 305/528/6 299/536/6 331/482/6 317/481/6
f 307/475/2 271/474/2 312/464/2 320/463/2
f 303/524/2 330/539/2 329/415/2 318/414/2
f 274/522/2 313/540/2 314/533/2 273/530/2
f 313/540/2 320/463/2 318/414/2 314/533/2
f 274/522/2 307/475/2 320/463/2 313/540/2
f 259/541/4 322/434/4 321/455/4 254/542/4
f 254/542/4 321/455/4 323/468/4 261/543/4
f 270/544/4 324/467/4 322/434/4 259/541/4
f 261/543/4 323/468/4 324/467/4 270/544/4
f 119/545/3 261/546/3 270/547/3 128/548/3
f 128/548/6 270/547/6 259/549/6 117/550/6
f 117/550/1 259/549/1 254/551/1 112/552/1
f 112/552/2 254/551/2 261/553/2 119/554/2
f 169/555/7 156/556/7 326/557/7 325/328/7
f 158/558/7 173/559/7 327/327/7 328/560/7
f 156/556/7 158/558/7 328/560/7 326/557/7
f 173/559/7 169/555/7 325/328/7 327/327/7
f 298/561/4 311/562/4 329/534/4 330/563/4
f 315/564/4 300/565/4 332/566/4 331/535/4
f 300/565/4 298/561/4 330/563/4 332/566/4
f 311/562/4 315/564/4 331/535/4 329/534/4
f 158/567/3 156/568/3 298/569/3 300/570/3
f 311/571/2 298/572/2 156/573/2 169/574/2
f 315/575/1 311/571/1 169/574/1 173/576/1
f 300/570/6 315/575/6 173/576/6 158/567/6
f 231/577/1 233/578/1 335/579/1 333/580/1
f 234/581/3 232/582/3 334/583/3 336/584/3
f 233/578/6 234/581/6 336/584/6 335/579/6
f 232/585/2 231/577/2 333/580/2 334/586/2
f 334/587/2 333/588/2 337/589/2 338/590/2
f 335/591/4 336/592/4 340/593/4 339/594/4
f 333/588/4 335/591/4 339/594/4 341/595/4
f 342/596/8 340/593/8 336/592/8 334/587/8
f 337/589/2 333/588/2 341/595/2 351/597/2
f 352/598/2 342/596/2 334/587/2 338/590/2
f 352/598/2 338/590/2 337/589/2 351/597/2
f 345/599/1 351/600/1 341/601/1 339/602/1
f 340/603/9 342/604/9 352/605/9 346/606/9
f 345/607/6 339/608/6 340/609/6 346/610/6
f 346/606/10 352/605/10 354/611/10 350/612/10
f 353/613/11 349/614/11 350/612/11 354/611/11
f 351/600/12 345/599/12 349/614/12 353/613/12
f 348/615/13 344/616/13 356/617/13 358/618/13
f 345/607/14 346/610/14 350/612/14 349/614/14
f 343/619/15 344/620/15 352/598/15 351/597/15
f 348/621/15 347/622/15 353/613/15 354/611/15
f 344/620/16 348/621/16 354/611/16 352/598/16
f 347/622/16 343/619/16 351/597/16 353/613/16
f 407/623/17 401/624/17 344/625/17
f 343/626/12 347/627/12 357/628/12 355/629/12
f 408/630/18 404/631/18 347/627/18
f 787/632/4 790/633/4 370/634/4 373/363/4
f 386/346/1 387/635/1 371/371/1 363/347/1
f 388/636/3 389/637/3 360/638/3 374/639/3
f 389/637/3 390/361/3 362/364/3 360/638/3
f 359/640/2 360/638/2 362/364/2 361/641/2
f 363/347/2 364/642/2 366/643/2 365/348/2
f 367/644/2 359/640/2 364/642/2 368/370/2
f 364/642/2 363/347/2 371/371/2 368/370/2
f 369/358/2 372/357/2 365/348/2 366/643/2
f 370/634/2 369/358/2 366/643/2 361/641/2
f 367/644/2 374/639/2 360/638/2 359/640/2
f 370/634/2 361/641/2 362/364/2 373/363/2
f 375/645/2 376/646/2 366/643/2 364/642/2
f 377/647/2 375/645/2 364/642/2 359/640/2
f 376/646/2 378/648/2 361/641/2 366/643/2
f 378/648/2 377/647/2 359/640/2 361/641/2
f 790/633/4 380/355/4 369/358/4 370/634/4
f 193/350/1 191/354/1 377/649/1 378/650/1
f 383/369/7 379/651/7 367/644/7 368/370/7
f 379/651/7 388/652/7 374/639/7 367/644/7
f 199/187/7 206/375/7 388/652/7 379/651/7
f 200/653/6 199/654/6 427/655/6 418/656/6
f 789/184/4 201/183/4 380/355/4 790/633/4
f 192/213/3 194/228/3 390/361/3 389/637/3
f 206/214/3 192/213/3 389/637/3 388/636/3
f 195/209/1 203/224/1 387/635/1 386/346/1
f 397/657/2 385/658/2 384/659/2 395/660/2
f 203/192/7 200/188/7 383/369/7 387/368/7
f 204/373/1 197/210/1 382/345/1 381/367/1
f 194/228/3 788/227/3 787/362/3 390/361/3
f 201/183/4 204/202/4 381/356/4 380/355/4
f 197/210/1 195/209/1 386/346/1 382/345/1
f 230/661/6 229/400/6 784/403/6 394/662/6
f 392/663/4 394/664/4 398/665/4 396/666/4
f 783/667/3 392/668/3 396/669/3 785/670/3
f 394/671/1 784/672/1 786/673/1 398/674/1
f 393/675/1 202/676/1 385/677/1 397/678/1
f 785/670/3 396/669/3 792/679/3 791/680/3
f 228/681/6 230/661/6 394/662/6 392/682/6
f 227/401/6 228/681/6 392/682/6 783/402/6
f 445/683/19 446/684/19 411/685/19 410/686/19
f 446/684/20 447/687/20 412/688/20 411/685/20
f 447/687/21 448/689/21 413/690/21 412/688/21
f 448/689/22 449/691/22 414/692/22 413/690/22
f 449/691/23 450/693/23 415/694/23 414/692/23
f 450/693/24 451/695/24 416/696/24 415/694/24
f 451/695/25 452/697/25 417/698/25 416/696/25
f 452/697/26 453/699/26 419/700/26 417/698/26
f 453/699/27 454/701/27 420/702/27 419/700/27
f 454/701/28 455/703/28 421/704/28 420/702/28
f 455/703/29 456/705/29 422/706/29 421/704/29
f 456/705/30 457/707/30 423/708/30 422/706/30
f 457/707/31 740/709/31 734/710/31 423/708/31
f 741/711/32 465/712/32 432/713/32 739/714/32
f 465/712/33 466/715/33 433/716/33 432/713/33
f 466/715/34 467/717/34 434/718/34 433/716/34
f 467/717/35 468/719/35 435/720/35 434/718/35
f 468/719/36 469/721/36 436/722/36 435/720/36
f 469/721/37 470/723/37 438/724/37 436/722/37
f 470/723/38 471/725/38 439/726/38 438/724/38
f 471/725/39 472/727/39 440/728/39 439/726/39
f 472/727/40 473/729/40 441/730/40 440/728/40
f 473/729/41 474/731/41 442/732/41 441/730/41
f 474/731/42 475/733/42 443/734/42 442/732/42
f 433/716/33 498/735/33 497/736/33 432/713/33
f 475/733/43 476/737/43 444/738/43 443/734/43
f 476/737/44 445/739/44 410/740/44 444/738/44
f 778/741/44 747/742/44 445/739/44 476/737/44
f 777/743/43 778/741/43 476/737/43 475/733/43
f 776/744/42 777/743/42 475/733/42 474/731/42
f 775/745/41 776/744/41 474/731/41 473/729/41
f 774/746/40 775/745/40 473/729/40 472/727/40
f 773/747/39 774/746/39 472/727/39 471/725/39
f 772/748/38 773/747/38 471/725/38 470/723/38
f 771/749/37 772/748/37 470/723/37 469/721/37
f 770/750/36 771/749/36 469/721/36 468/719/36
f 769/751/35 770/750/35 468/719/35 467/717/35
f 768/752/34 769/751/34 467/717/34 466/715/34
f 767/753/33 768/752/33 466/715/33 465/712/33
f 766/754/32 767/753/32 465/712/32 741/711/32
f 765/755/45 766/754/45 741/711/45 742/756/45
f 764/757/46 765/755/46 742/756/46 743/758/46
f 763/759/47 764/757/47 743/758/47 744/760/47
f 762/761/48 763/759/48 744/760/48 745/762/48
f 761/763/49 762/761/49 745/762/49 746/764/49
f 760/765/50 761/763/50 746/764/50 740/709/50
f 759/766/31 760/765/31 740/709/31 457/707/31
f 758/767/30 759/766/30 457/707/30 456/705/30
f 757/768/29 758/767/29 456/705/29 455/703/29
f 756/769/28 757/768/28 455/703/28 454/701/28
f 755/770/27 756/769/27 454/701/27 453/699/27
f 754/771/26 755/770/26 453/699/26 452/697/26
f 753/772/25 754/771/25 452/697/25 451/695/25
f 752/773/24 753/772/24 451/695/24 450/693/24
f 751/774/23 752/773/23 450/693/23 449/691/23
f 750/775/22 751/774/22 449/691/22 448/689/22
f 749/776/21 750/775/21 448/689/21 447/687/21
f 748/777/20 749/776/20 447/687/20 446/684/20
f 747/778/19 748/777/19 446/684/19 445/683/19
f 509/779/51 510/780/51 513/781/51 512/782/51
f 443/734/42 507/783/42 506/784/42 442/732/42
f 419/700/26 485/785/26 484/786/26 417/698/26
f 737/787/47 494/788/47 493/789/47 736/790/47
f 439/726/38 503/791/38 502/792/38 438/724/38
f 414/692/22 481/793/22 480/794/22 413/690/22
f 734/710/31 490/795/31 489/796/31 423/708/31
f 434/718/34 499/797/34 498/735/34 433/716/34
f 444/738/43 508/798/43 507/783/43 443/734/43
f 420/702/27 486/799/27 485/785/27 419/700/27
f 738/800/46 495/801/46 494/788/46 737/787/46
f 440/728/39 504/802/39 503/791/39 439/726/39
f 415/694/23 482/803/23 481/793/23 414/692/23
f 733/804/50 491/805/50 490/795/50 734/710/50
f 435/720/35 500/806/35 499/797/35 434/718/35
f 411/685/19 477/807/19 478/808/19 410/686/19
f 410/740/44 478/809/44 508/798/44 444/738/44
f 421/704/28 487/810/28 486/799/28 420/702/28
f 739/714/45 496/811/45 495/801/45 738/800/45
f 441/730/40 505/812/40 504/802/40 440/728/40
f 416/696/24 483/813/24 482/803/24 415/694/24
f 735/814/49 492/815/49 491/805/49 733/804/49
f 436/722/36 501/816/36 500/806/36 435/720/36
f 412/688/20 479/817/20 477/807/20 411/685/20
f 422/706/29 488/818/29 487/810/29 421/704/29
f 432/713/32 497/736/32 496/811/32 739/714/32
f 442/732/41 506/784/41 505/812/41 441/730/41
f 417/698/25 484/786/25 483/813/25 416/696/25
f 736/790/48 493/789/48 492/815/48 735/814/48
f 438/724/37 502/792/37 501/816/37 436/722/37
f 413/690/21 480/794/21 479/817/21 412/688/21
f 423/708/30 489/796/30 488/818/30 422/706/30
f 491/819/52 509/779/52 512/782/52 490/820/52
f 605/821/53 606/822/53 609/823/53 608/824/53
f 510/780/54 511/825/54 514/826/54 513/781/54
f 694/827/55 517/828/55 514/826/55 697/829/55
f 490/820/56 512/782/56 515/830/56 489/831/56
f 512/782/57 513/781/57 516/832/57 515/830/57
f 513/781/58 514/826/58 517/828/58 516/832/58
f 691/833/59 520/834/59 517/828/59 694/827/59
f 489/831/60 515/830/60 518/835/60 488/836/60
f 515/830/61 516/832/61 519/837/61 518/835/61
f 516/832/62 517/828/62 520/834/62 519/837/62
f 688/838/63 523/839/63 520/834/63 691/833/63
f 488/836/64 518/835/64 521/840/64 487/841/64
f 518/835/65 519/837/65 522/842/65 521/840/65
f 519/837/66 520/834/66 523/839/66 522/842/66
f 685/843/67 526/844/67 523/839/67 688/838/67
f 487/841/68 521/840/68 524/845/68 486/846/68
f 521/840/69 522/842/69 525/847/69 524/845/69
f 522/842/70 523/839/70 526/844/70 525/847/70
f 682/848/71 529/849/71 526/844/71 685/843/71
f 486/846/72 524/845/72 527/850/72 485/851/72
f 524/845/73 525/847/73 528/852/73 527/850/73
f 525/847/74 526/844/74 529/849/74 528/852/74
f 679/853/75 532/854/75 529/849/75 682/848/75
f 485/851/76 527/850/76 530/855/76 484/856/76
f 527/850/77 528/852/77 531/857/77 530/855/77
f 528/852/78 529/849/78 532/854/78 531/857/78
f 676/858/79 535/859/79 532/854/79 679/853/79
f 484/856/80 530/855/80 533/860/80 483/861/80
f 530/855/81 531/857/81 534/862/81 533/860/81
f 531/857/82 532/854/82 535/859/82 534/862/82
f 673/863/83 538/864/83 535/859/83 676/858/83
f 483/861/84 533/860/84 536/865/84 482/866/84
f 533/860/85 534/862/85 537/867/85 536/865/85
f 534/862/86 535/859/86 538/864/86 537/867/86
f 670/868/87 541/869/87 538/864/87 673/863/87
f 482/866/88 536/865/88 539/870/88 481/871/88
f 536/865/89 537/867/89 540/872/89 539/870/89
f 537/867/90 538/864/90 541/869/90 540/872/90
f 667/873/91 544/874/91 541/869/91 670/868/91
f 481/871/92 539/870/92 542/875/92 480/876/92
f 539/870/93 540/872/93 543/877/93 542/875/93
f 540/872/94 541/869/94 544/874/94 543/877/94
f 664/878/95 547/879/95 544/874/95 667/873/95
f 480/876/96 542/875/96 545/880/96 479/881/96
f 542/875/97 543/877/97 546/882/97 545/880/97
f 543/877/98 544/874/98 547/879/98 546/882/98
f 661/883/99 550/884/99 547/879/99 664/878/99
f 479/881/100 545/880/100 548/885/100 477/886/100
f 545/880/101 546/882/101 549/887/101 548/885/101
f 546/882/102 547/879/102 550/884/102 549/887/102
f 658/888/103 553/889/103 550/884/103 661/883/103
f 477/886/104 548/885/104 551/890/104 478/891/104
f 548/885/105 549/887/105 552/892/105 551/890/105
f 549/887/106 550/884/106 553/889/106 552/892/106
f 655/893/107 556/894/107 553/895/107 658/896/107
f 478/897/108 551/898/108 554/899/108 508/900/108
f 551/898/109 552/901/109 555/902/109 554/899/109
f 552/901/110 553/895/110 556/894/110 555/902/110
f 652/903/111 559/904/111 556/894/111 655/893/111
f 508/900/112 554/899/112 557/905/112 507/906/112
f 554/899/113 555/902/113 558/907/113 557/905/113
f 555/902/114 556/894/114 559/904/114 558/907/114
f 649/908/115 562/909/115 559/904/115 652/903/115
f 507/906/116 557/905/116 560/910/116 506/911/116
f 557/905/117 558/907/117 561/912/117 560/910/117
f 558/907/118 559/904/118 562/909/118 561/912/118
f 646/913/119 565/914/119 562/909/119 649/908/119
f 506/911/120 560/910/120 563/915/120 505/916/120
f 560/910/121 561/912/121 564/917/121 563/915/121
f 561/912/122 562/909/122 565/914/122 564/917/122
f 643/918/123 568/919/123 565/914/123 646/913/123
f 505/916/124 563/915/124 566/920/124 504/921/124
f 563/915/125 564/917/125 567/922/125 566/920/125
f 564/917/126 565/914/126 568/919/126 567/922/126
f 640/923/127 571/924/127 568/919/127 643/918/127
f 504/921/128 566/920/128 569/925/128 503/926/128
f 566/920/129 567/922/129 570/927/129 569/925/129
f 567/922/130 568/919/130 571/924/130 570/927/130
f 637/928/131 574/929/131 571/924/131 640/923/131
f 503/926/132 569/925/132 572/930/132 502/931/132
f 569/925/133 570/927/133 573/932/133 572/930/133
f 570/927/134 571/924/134 574/929/134 573/932/134
f 634/933/135 577/934/135 574/929/135 637/928/135
f 502/931/136 572/930/136 575/935/136 501/936/136
f 572/930/137 573/932/137 576/937/137 575/935/137
f 573/932/138 574/929/138 577/934/138 576/937/138
f 631/938/139 580/939/139 577/934/139 634/933/139
f 501/936/140 575/935/140 578/940/140 500/941/140
f 575/935/141 576/937/141 579/942/141 578/940/141
f 576/937/142 577/934/142 580/939/142 579/942/142
f 628/943/143 583/944/143 580/939/143 631/938/143
f 500/941/144 578/940/144 581/945/144 499/946/144
f 578/940/145 579/942/145 582/947/145 581/945/145
f 579/942/146 580/939/146 583/944/146 582/947/146
f 625/948/147 586/949/147 583/944/147 628/943/147
f 499/946/148 581/945/148 584/950/148 498/951/148
f 581/945/149 582/947/149 585/952/149 584/950/149
f 582/947/150 583/944/150 586/949/150 585/952/150
f 622/953/151 589/954/151 586/949/151 625/948/151
f 498/951/152 584/950/152 587/955/152 497/956/152
f 584/950/153 585/952/153 588/957/153 587/955/153
f 585/952/154 586/949/154 589/954/154 588/957/154
f 619/958/155 592/959/155 589/954/155 622/953/155
f 497/956/156 587/955/156 590/960/156 496/961/156
f 587/955/157 588/957/157 591/962/157 590/960/157
f 588/957/158 589/954/158 592/959/158 591/962/158
f 616/963/159 595/964/159 592/959/159 619/958/159
f 496/961/160 590/960/160 593/965/160 495/966/160
f 590/960/161 591/962/161 594/967/161 593/965/161
f 591/962/162 592/959/162 595/964/162 594/967/162
f 613/968/163 598/969/163 595/964/163 616/963/163
f 495/966/164 593/965/164 596/970/164 494/971/164
f 593/965/165 594/967/165 597/972/165 596/970/165
f 594/967/166 595/964/166 598/969/166 597/972/166
f 610/973/167 601/974/167 598/969/167 613/968/167
f 494/971/168 596/970/168 599/975/168 493/976/168
f 596/970/169 597/972/169 600/977/169 599/975/169
f 597/972/170 598/969/170 601/974/170 600/977/170
f 607/978/171 604/979/171 601/974/171 610/973/171
f 493/976/172 599/975/172 602/980/172 492/981/172
f 599/975/173 600/977/173 603/982/173 602/980/173
f 600/977/174 601/974/174 604/979/174 603/982/174
f 700/983/175 511/825/175 604/979/175 607/978/175
f 492/981/176 602/980/176 509/779/176 491/819/176
f 602/980/177 603/982/177 510/780/177 509/779/177
f 603/982/178 604/979/178 511/825/178 510/780/178
f 606/822/179 607/978/179 610/973/179 609/823/179
f 609/823/180 610/973/180 613/968/180 612/984/180
f 608/824/181 609/823/181 612/984/181 611/985/181
f 612/984/182 613/968/182 616/963/182 615/986/182
f 611/985/183 612/984/183 615/986/183 614/987/183
f 615/986/184 616/963/184 619/958/184 618/988/184
f 614/987/185 615/986/185 618/988/185 617/989/185
f 618/988/186 619/958/186 622/953/186 621/990/186
f 617/989/187 618/988/187 621/990/187 620/991/187
f 621/990/188 622/953/188 625/948/188 624/992/188
f 620/991/189 621/990/189 624/992/189 623/993/189
f 624/992/190 625/948/190 628/943/190 627/994/190
f 623/993/191 624/992/191 627/994/191 626/995/191
f 627/994/192 628/943/192 631/938/192 630/996/192
f 626/995/193 627/994/193 630/996/193 629/997/193
f 630/996/194 631/938/194 634/933/194 633/998/194
f 629/997/195 630/996/195 633/998/195 632/999/195
f 633/998/196 634/933/196 637/928/196 636/1000/196
f 632/999/197 633/998/197 636/1000/197 635/1001/197
f 636/1000/198 637/928/198 640/923/198 639/1002/198
f 635/1001/199 636/1000/199 639/1002/199 638/1003/199
f 639/1002/200 640/923/200 643/918/200 642/1004/200
f 638/1003/201 639/1002/201 642/1004/201 641/1005/201
f 642/1004/202 643/918/202 646/913/202 645/1006/202
f 641/1005/203 642/1004/203 645/1006/203 644/1007/203
f 645/1006/204 646/913/204 649/908/204 648/1008/204
f 644/1007/205 645/1006/205 648/1008/205 647/1009/205
f 648/1008/206 649/908/206 652/903/206 651/1010/206
f 647/1009/207 648/1008/207 651/1010/207 650/1011/207
f 651/1010/208 652/903/208 655/893/208 654/1012/208
f 650/1011/209 651/1010/209 654/1012/209 653/1013/209
f 654/1012/210 655/893/210 658/896/210 657/1014/210
f 653/1013/211 654/1012/211 657/1014/211 656/1015/211
f 657/1016/212 658/888/212 661/883/212 660/1017/212
f 656/1018/213 657/1016/213 660/1017/213 659/1019/213
f 660/1017/214 661/883/214 664/878/214 663/1020/214
f 659/1019/215 660/1017/215 663/1020/215 662/1021/215
f 663/1020/216 664/878/216 667/873/216 666/1022/216
f 662/1021/217 663/1020/217 666/1022/217 665/1023/217
f 666/1022/218 667/873/218 670/868/218 669/1024/218
f 665/1023/219 666/1022/219 669/1024/219 668/1025/219
f 669/1024/220 670/868/220 673/863/220 672/1026/220
f 668/1025/221 669/1024/221 672/1026/221 671/1027/221
f 672/1026/222 673/863/222 676/858/222 675/1028/222
f 671/1027/223 672/1026/223 675/1028/223 674/1029/223
f 675/1028/224 676/858/224 679/853/224 678/1030/224
f 674/1029/225 675/1028/225 678/1030/225 677/1031/225
f 678/1030/226 679/853/226 682/848/226 681/1032/226
f 677/1031/227 678/1030/227 681/1032/227 680/1033/227
f 681/1032/228 682/848/228 685/843/228 684/1034/228
f 680/1033/229 681/1032/229 684/1034/229 683/1035/229
f 684/1034/230 685/843/230 688/838/230 687/1036/230
f 683/1035/231 684/1034/231 687/1036/231 686/1037/231
f 687/1036/232 688/838/232 691/833/232 690/1038/232
f 686/1037/233 687/1036/233 690/1038/233 689/1039/233
f 690/1038/234 691/833/234 694/827/234 693/1040/234
f 689/1039/235 690/1038/235 693/1040/235 692/1041/235
f 693/1040/236 694/827/236 697/829/236 696/1042/236
f 692/1041/237 693/1040/237 696/1042/237 695/1043/237
f 696/1042/238 697/829/238 700/983/238 699/1044/238
f 695/1043/239 696/1042/239 699/1044/239 698/1045/239
f 699/1044/240 700/983/240 607/978/240 606/822/240
f 698/1045/241 699/1044/241 606/822/241 605/821/241
f 698/1045/242 732/1046/242 731/1047/242 695/1043/242
f 683/1035/243 727/1048/243 726/1049/243 680/1033/243
f 668/1025/244 722/1050/244 721/1051/244 665/1023/244
f 653/1013/245 717/1052/245 716/1053/245 650/1011/245
f 638/1003/246 712/1054/246 711/1055/246 635/1001/246
f 623/993/247 707/1056/247 706/1057/247 620/991/247
f 689/1039/248 729/1058/248 728/1059/248 686/1037/248
f 674/1029/249 724/1060/249 723/1061/249 671/1027/249
f 659/1019/250 719/1062/250 718/1063/250 656/1018/250
f 644/1007/251 714/1064/251 713/1065/251 641/1005/251
f 629/997/252 709/1066/252 708/1067/252 626/995/252
f 614/987/253 704/1068/253 703/1069/253 611/985/253
f 695/1043/254 731/1047/254 730/1070/254 692/1041/254
f 680/1033/255 726/1049/255 725/1071/255 677/1031/255
f 665/1023/256 721/1051/256 720/1072/256 662/1021/256
f 650/1011/257 716/1053/257 715/1073/257 647/1009/257
f 635/1001/258 711/1055/258 710/1074/258 632/999/258
f 620/991/259 706/1057/259 705/1075/259 617/989/259
f 605/821/260 701/1076/260 732/1046/260 698/1045/260
f 686/1037/261 728/1059/261 727/1048/261 683/1035/261
f 671/1027/262 723/1061/262 722/1050/262 668/1025/262
f 656/1015/263 718/1077/263 717/1052/263 653/1013/263
f 641/1005/264 713/1065/264 712/1054/264 638/1003/264
f 626/995/265 708/1067/265 707/1056/265 623/993/265
f 611/985/266 703/1069/266 702/1078/266 608/824/266
f 608/824/267 702/1078/267 701/1076/267 605/821/267
f 692/1041/268 730/1070/268 729/1058/268 689/1039/268
f 677/1031/269 725/1071/269 724/1060/269 674/1029/269
f 662/1021/270 720/1072/270 719/1062/270 659/1019/270
f 647/1009/271 715/1073/271 714/1064/271 644/1007/271
f 632/999/272 710/1074/272 709/1066/272 629/997/272
f 617/989/273 705/1075/273 704/1068/273 614/987/273
f 424/1079/50 425/1080/50 733/804/50 734/710/50
f 425/1080/49 426/1081/49 735/814/49 733/804/49
f 426/1081/48 428/1082/48 736/790/48 735/814/48
f 428/1082/47 429/1083/47 737/787/47 736/790/47
f 429/1083/46 430/1084/46 738/800/46 737/787/46
f 430/1084/45 431/1085/45 739/714/45 738/800/45
f 458/1086/50 424/1079/50 734/710/50 740/709/50
f 431/1085/45 464/1087/45 741/711/45 739/714/45
f 464/1087/45 463/1088/45 742/756/45 741/711/45
f 463/1088/46 462/1089/46 743/758/46 742/756/46
f 462/1089/47 461/1090/47 744/760/47 743/758/47
f 461/1090/48 460/1091/48 745/762/48 744/760/48
f 460/1091/49 459/1092/49 746/764/49 745/762/49
f 459/1092/50 458/1086/50 740/709/50 746/764/50
f 430/1084/274 406/1093/274 358/1094/274 431/1085/274
f 464/1087/6 431/1085/6 358/1094/6 356/1095/6
f 402/1096/275 463/1088/275 464/1087/275 356/1095/275
f 401/1097/46 462/1089/46 463/1088/46 402/1096/46
f 407/1098/47 461/1090/47 462/1089/47 401/1097/47
f 400/1099/48 460/1091/48 461/1090/48 407/1098/48
f 399/1100/49 459/1092/49 460/1091/49 400/1099/49
f 355/1101/276 458/1086/276 459/1092/276 399/1100/276
f 357/1102/6 424/1079/6 458/1086/6 355/1101/6
f 424/1079/277 357/1102/277 403/1103/277 425/1080/277
f 425/1080/49 403/1103/49 404/1104/49 426/1081/49
f 426/1081/48 404/1104/48 408/1105/48 428/1082/48
f 428/1082/47 408/1105/47 405/1106/47 429/1083/47
f 429/1083/46 405/1106/46 406/1093/46 430/1084/46
f 343/626/278 355/629/278 399/1107/278
f 343/1108/279 399/1109/279 400/1110/279
f 402/1111/280 356/1112/280 344/625/280
f 401/624/281 402/1111/281 344/625/281
f 344/625/282 343/1108/282 407/623/282
f 343/1108/283 400/1110/283 407/623/283
f 348/615/284 358/618/284 406/1113/284
f 348/615/11 406/1113/11 405/1114/11
f 403/1115/285 357/628/285 347/627/285
f 404/631/286 403/1115/286 347/627/286
f 347/627/287 348/615/287 408/630/287
f 348/615/288 405/1114/288 408/630/288
f 409/1116/4 748/1117/4 747/1118/4
f 409/1116/4 749/1119/4 748/1117/4
f 409/1116/4 750/1120/4 749/1119/4
f 409/1116/4 751/1121/4 750/1120/4
f 409/1116/4 752/1122/4 751/1121/4
f 409/1116/4 753/1123/4 752/1122/4
f 409/1116/4 754/1124/4 753/1123/4
f 409/1116/4 418/1125/4 755/1126/4 754/1124/4
f 418/1125/4 756/1127/4 755/1126/4
f 418/1125/4 757/1128/4 756/1127/4
f 418/1125/4 758/1129/4 757/1128/4
f 418/1125/4 759/1130/4 758/1129/4
f 418/1125/4 760/1131/4 759/1130/4
f 418/1125/4 761/1132/4 760/1131/4
f 418/1125/4 762/1133/4 761/1132/4
f 418/1125/4 427/1134/4 763/1135/4 762/1133/4
f 427/1134/4 764/1136/4 763/1135/4
f 427/1134/4 765/1137/4 764/1136/4
f 427/1134/4 766/1138/4 765/1137/4
f 427/1134/4 767/1139/4 766/1138/4
f 427/1134/4 768/1140/4 767/1139/4
f 427/1134/4 769/1141/4 768/1140/4
f 427/1134/4 770/1142/4 769/1141/4
f 427/1134/4 771/1143/4 770/1142/4
f 427/1134/4 437/1144/4 772/1145/4 771/1143/4
f 437/1144/4 773/1146/4 772/1145/4
f 437/1144/4 774/1147/4 773/1146/4
f 437/1144/4 775/1148/4 774/1147/4
f 437/1144/4 776/1149/4 775/1148/4
f 437/1144/4 777/1150/4 776/1149/4
f 437/1144/4 778/1151/4 777/1150/4
f 437/1144/4 409/1116/4 747/1118/4 778/1151/4
f 199/654/3 379/1152/3 437/1153/3 427/655/3
f 379/1152/2 383/1154/2 409/1155/2 437/1153/2
f 383/1156/1 200/653/1 418/656/1 409/1157/1
f 697/829/289 514/826/289 511/825/289 700/983/289
f 3/22/6 4/21/6 780/1/6 782/10/6
f 781/7/4 782/10/4 780/1/4 779/4/4
f 391/1158/7 393/1159/7 784/403/7 783/402/7
f 397/1160/7 395/1161/7 785/1162/7 786/1163/7
f 395/1161/7 391/1158/7 783/402/7 785/1162/7
f 393/1159/7 397/1160/7 786/1163/7 784/403/7
f 205/1164/4 384/1165/4 787/632/4 788/190/4
f 202/1166/4 205/1164/4 788/190/4 789/184/4
f 385/1167/4 202/1166/4 789/184/4 790/633/4
f 384/1165/4 385/1167/4 790/633/4 787/632/4
f 395/660/3 384/659/3 205/1168/3 391/1169/3
f 391/1169/6 205/1168/6 202/676/6 393/675/6
f 792/679/2 794/1170/2 793/1171/2 791/680/2
f 398/674/1 786/673/1 793/1171/1 794/1170/1
f 786/1163/7 785/1162/7 791/680/7 793/1171/7
f 396/666/4 398/665/4 794/1170/4 792/679/4
